<?xml version="1.0" encoding="UTF-8" standalone="no"?>
<!-- Created with Inkscape (http://www.inkscape.org/) -->

<svg
   xmlns:dc="http://purl.org/dc/elements/1.1/"
   xmlns:cc="http://creativecommons.org/ns#"
   xmlns:rdf="http://www.w3.org/1999/02/22-rdf-syntax-ns#"
   xmlns:svg="http://www.w3.org/2000/svg"
   xmlns="http://www.w3.org/2000/svg"
   xmlns:sodipodi="http://sodipodi.sourceforge.net/DTD/sodipodi-0.dtd"
   xmlns:inkscape="http://www.inkscape.org/namespaces/inkscape"
   id="svg2"
   version="1.1"
   inkscape:version="0.48.2 r9819"
   width="195.82875"
   height="56.949688"
   xml:space="preserve"
   sodipodi:docname="logo-text.svg"><metadata
     id="metadata8"><rdf:RDF><cc:Work
         rdf:about=""><dc:format>image/svg+xml</dc:format><dc:type
           rdf:resource="http://purl.org/dc/dcmitype/StillImage" /><dc:title /></cc:Work></rdf:RDF></metadata><defs
     id="defs6"><clipPath
       clipPathUnits="userSpaceOnUse"
       id="clipPath18"><path
         d="M 0,0 268,0 268,235 0,235 0,0 z"
         id="path20"
         inkscape:connector-curvature="0" /></clipPath><clipPath
       clipPathUnits="userSpaceOnUse"
       id="clipPath28"><path
         d="m 0.06,234.917 267.353,0 0,-234.857 -267.353,0 0,234.857 z"
         id="path30"
         inkscape:connector-curvature="0" /></clipPath><clipPath
       clipPathUnits="userSpaceOnUse"
       id="clipPath34"><path
         d="M 0,0 268,0 268,235 0,235 0,0 z"
         id="path36"
         inkscape:connector-curvature="0" /></clipPath><clipPath
       clipPathUnits="userSpaceOnUse"
       id="clipPath56"><path
         d="M 0,0 268,0 268,235 0,235 0,0 z"
         id="path58"
         inkscape:connector-curvature="0" /></clipPath><clipPath
       clipPathUnits="userSpaceOnUse"
       id="clipPath68"><path
         d="m 0.06,234.917 267.353,0 0,-234.857 -267.353,0 0,234.857 z"
         id="path70"
         inkscape:connector-curvature="0" /></clipPath><clipPath
       clipPathUnits="userSpaceOnUse"
       id="clipPath74"><path
         d="M 0,0 268,0 268,235 0,235 0,0 z"
         id="path76"
         inkscape:connector-curvature="0" /></clipPath><clipPath
       clipPathUnits="userSpaceOnUse"
       id="clipPath86"><path
         d="M 0,0 268,0 268,235 0,235 0,0 z"
         id="path88"
         inkscape:connector-curvature="0" /></clipPath><clipPath
       clipPathUnits="userSpaceOnUse"
       id="clipPath154"><path
         d="m 0.06,234.917 267.353,0 0,-234.857 -267.353,0 0,234.857 z"
         id="path156"
         inkscape:connector-curvature="0" /></clipPath><clipPath
       clipPathUnits="userSpaceOnUse"
       id="clipPath160"><path
         d="M 0,0 268,0 268,235 0,235 0,0 z"
         id="path162"
         inkscape:connector-curvature="0" /></clipPath><clipPath
       clipPathUnits="userSpaceOnUse"
       id="clipPath176"><path
         d="M 0,0 268,0 268,235 0,235 0,0 z"
         id="path178"
         inkscape:connector-curvature="0" /></clipPath><clipPath
       clipPathUnits="userSpaceOnUse"
       id="clipPath186"><path
         d="m 0.06,234.917 267.353,0 0,-234.857 -267.353,0 0,234.857 z"
         id="path188"
         inkscape:connector-curvature="0" /></clipPath><clipPath
       clipPathUnits="userSpaceOnUse"
       id="clipPath192"><path
         d="M 0,0 268,0 268,235 0,235 0,0 z"
         id="path194"
         inkscape:connector-curvature="0" /></clipPath><clipPath
       clipPathUnits="userSpaceOnUse"
       id="clipPath204"><path
         d="M 0,0 268,0 268,235 0,235 0,0 z"
         id="path206"
         inkscape:connector-curvature="0" /></clipPath></defs><sodipodi:namedview
     pagecolor="#ffffff"
     bordercolor="#666666"
     borderopacity="1"
     objecttolerance="10"
     gridtolerance="10"
     guidetolerance="10"
     inkscape:pageopacity="0"
     inkscape:pageshadow="2"
     inkscape:window-width="1440"
     inkscape:window-height="768"
     id="namedview4"
     showgrid="false"
     fit-margin-top="0"
     fit-margin-left="0"
     fit-margin-right="0"
     fit-margin-bottom="0"
     inkscape:zoom="2.2725694"
     inkscape:cx="-91.001712"
     inkscape:cy="61.433502"
     inkscape:window-x="0"
     inkscape:window-y="0"
     inkscape:window-maximized="1"
     inkscape:current-layer="g10" /><g
     id="g10"
     inkscape:groupmode="layer"
     inkscape:label="CheckoutExpress_Logo"
     transform="matrix(1.25,0,0,-1.25,-138.4375,241.09219)"><g
       id="g12" /><g
       id="g14"><g
         id="g16"
         clip-path="url(#clipPath18)" /></g><g
       id="g24"><g
         id="g26"
         clip-path="url(#clipPath28)"><g
           id="g32"
           clip-path="url(#clipPath34)" /></g></g><g
       id="g52"><g
         id="g54"
         clip-path="url(#clipPath56)" /></g><g
       id="g64"><g
         id="g66"
         clip-path="url(#clipPath68)"><g
           id="g72"
           clip-path="url(#clipPath74)" /></g></g><g
       id="g82"><g
         id="g84"
         clip-path="url(#clipPath86)"><path
           d="m 114.302,189.256 c 0.618,0.668 1.416,1.223 2.314,1.606 0.91,0.406 1.839,0.603 2.839,0.603 1.005,0 1.959,-0.203 2.844,-0.606 0.813,-0.348 1.58,-0.877 2.328,-1.596 0.442,-0.496 0.832,-1.016 1.2,-1.612 0.065,-0.105 0.18,-0.169 0.304,-0.169 l 0.708,0 c 0.007,0 0.013,0 0.018,0 0.198,0 0.357,0.16 0.357,0.357 0,0.097 -0.038,0.185 -0.101,0.25 l -0.061,0.118 c -0.362,0.693 -0.842,1.356 -1.429,1.974 -0.815,0.843 -1.773,1.523 -2.781,1.972 -2.38,0.961 -4.436,0.962 -6.761,-0.006 -1.028,-0.445 -1.987,-1.126 -2.758,-1.955 -0.79,-0.766 -1.443,-1.756 -1.892,-2.869 -0.458,-1.187 -0.681,-2.329 -0.681,-3.489 0,-1.186 0.236,-2.395 0.681,-3.488 0.422,-1.098 1.039,-2.042 1.875,-2.877 0.803,-0.864 1.766,-1.538 2.772,-1.946 1.125,-0.499 2.23,-0.742 3.377,-0.742 1.134,0 2.246,0.242 3.393,0.739 0.989,0.413 1.948,1.084 2.768,1.936 0.555,0.555 1.043,1.221 1.409,1.924 l 0.106,0.203 c 0.057,0.111 0.054,0.244 -0.011,0.351 -0.065,0.106 -0.181,0.172 -0.306,0.172 l -0.737,0 c -0.124,0 -0.28,-0.13 -0.345,-0.235 -0.352,-0.568 -0.71,-1.043 -1.084,-1.443 -0.747,-0.745 -1.515,-1.292 -2.326,-1.663 -1.081,-0.401 -1.992,-0.588 -2.867,-0.588 -1.099,0 -2.107,0.312 -2.836,0.572 -0.933,0.429 -1.712,0.987 -2.324,1.672 -0.682,0.709 -1.219,1.526 -1.594,2.429 -0.373,0.89 -0.554,1.866 -0.554,2.984 0,1.092 0.191,2.115 0.555,2.962 0.378,0.933 0.9,1.736 1.6,2.46"
           style="fill:#656263;fill-opacity:1;fill-rule:nonzero;stroke:none"
           id="path104"
           inkscape:connector-curvature="0" /><path
           d="m 146.69,192.43 -0.68,0 c -0.197,0 -0.358,-0.16 -0.358,-0.357 l 0,-7.232 -9.34,0 0,7.232 c 0,0.197 -0.161,0.357 -0.358,0.357 l -0.68,0 c -0.197,0 -0.357,-0.16 -0.357,-0.357 l 0,-16.531 c 0,-0.197 0.16,-0.357 0.357,-0.357 l 0.68,0 c 0.197,0 0.358,0.16 0.358,0.357 l 0,7.931 9.34,0 0,-7.931 c 0,-0.197 0.161,-0.357 0.358,-0.357 l 0.68,0 c 0.198,0 0.358,0.16 0.358,0.357 l 0,16.531 c 0,0.197 -0.16,0.357 -0.358,0.357"
           style="fill:#656263;fill-opacity:1;fill-rule:nonzero;stroke:none"
           id="path106"
           inkscape:connector-curvature="0" /><path
           d="m 165.529,176.581 -8.172,0 0,6.892 7.5,0 c 0.198,0 0.357,0.16 0.357,0.357 l 0,0.654 c 0,0.197 -0.159,0.357 -0.357,0.357 l -7.5,0 0,6.222 8.065,0 c 0.197,0 0.357,0.16 0.357,0.356 l 0,0.654 c 0,0.197 -0.16,0.357 -0.357,0.357 l -9.105,0 c -0.197,0 -0.357,-0.16 -0.357,-0.357 l 0,-16.531 c 0,-0.197 0.16,-0.357 0.357,-0.357 l 9.212,0 c 0.198,0 0.358,0.16 0.358,0.357 l 0,0.681 c 0,0.197 -0.16,0.358 -0.358,0.358"
           style="fill:#656263;fill-opacity:1;fill-rule:nonzero;stroke:none"
           id="path108"
           inkscape:connector-curvature="0" /><path
           d="m 176.196,189.256 c 0.618,0.668 1.417,1.223 2.313,1.605 0.912,0.407 1.841,0.604 2.84,0.604 1.007,0 1.962,-0.203 2.843,-0.606 0.814,-0.348 1.581,-0.877 2.329,-1.597 0.436,-0.486 0.827,-1.006 1.203,-1.614 0.065,-0.103 0.178,-0.166 0.301,-0.166 l 0.711,0 c 0.002,0 0.005,0 0.009,0 0.209,-0.001 0.366,0.157 0.366,0.357 0,0.099 -0.04,0.187 -0.103,0.251 l -0.062,0.117 c -0.363,0.694 -0.842,1.357 -1.429,1.973 -0.814,0.842 -1.771,1.523 -2.781,1.973 -2.382,0.962 -4.435,0.962 -6.759,-0.006 -1.03,-0.445 -1.989,-1.126 -2.76,-1.956 -0.786,-0.762 -1.441,-1.752 -1.893,-2.868 -0.456,-1.183 -0.678,-2.325 -0.678,-3.489 0,-1.189 0.236,-2.397 0.678,-3.488 0.424,-1.1 1.04,-2.044 1.876,-2.877 0.802,-0.862 1.764,-1.536 2.771,-1.946 1.127,-0.499 2.231,-0.742 3.378,-0.742 1.133,0 2.245,0.242 3.393,0.739 0.987,0.412 1.947,1.083 2.771,1.936 0.553,0.555 1.039,1.221 1.404,1.923 l 0.107,0.203 c 0.058,0.111 0.054,0.244 -0.01,0.351 -0.065,0.107 -0.18,0.173 -0.306,0.173 l -0.736,0 c -0.124,0 -0.282,-0.13 -0.347,-0.236 -0.352,-0.57 -0.708,-1.045 -1.084,-1.443 -0.741,-0.742 -1.511,-1.289 -2.326,-1.662 -1.078,-0.401 -1.989,-0.588 -2.866,-0.588 -1.095,0 -2.106,0.312 -2.835,0.572 -0.934,0.429 -1.713,0.987 -2.326,1.672 -0.681,0.707 -1.218,1.524 -1.592,2.429 -0.373,0.895 -0.555,1.871 -0.555,2.984 0,1.092 0.19,2.114 0.555,2.962 0.375,0.928 0.896,1.73 1.6,2.46"
           style="fill:#656263;fill-opacity:1;fill-rule:nonzero;stroke:none"
           id="path110"
           inkscape:connector-curvature="0" /><path
           d="m 201.297,184.826 6.001,7.014 c 0.09,0.107 0.11,0.255 0.053,0.382 -0.059,0.127 -0.185,0.208 -0.325,0.208 l -0.904,0 c -0.105,0 -0.204,-0.046 -0.271,-0.126 l -7.645,-8.978 0,8.747 c 0,0.197 -0.16,0.357 -0.357,0.357 l -0.681,0 c -0.197,0 -0.357,-0.16 -0.357,-0.357 l 0,-16.531 c 0,-0.197 0.16,-0.357 0.357,-0.357 l 0.681,0 c 0.197,0 0.357,0.16 0.357,0.357 l 0,5.662 2.159,2.546 5.916,-8.413 c 0.067,-0.095 0.176,-0.152 0.292,-0.152 l 0.795,0 c 0.134,0 0.256,0.074 0.318,0.192 0.061,0.119 0.052,0.261 -0.026,0.371 l -6.363,9.078"
           style="fill:#656263;fill-opacity:1;fill-rule:nonzero;stroke:none"
           id="path112"
           inkscape:connector-curvature="0" /><path
           d="m 221.445,176.177 c -1.095,0 -2.105,0.312 -2.834,0.572 -0.934,0.428 -1.714,0.987 -2.325,1.672 -0.682,0.707 -1.219,1.524 -1.594,2.429 -0.373,0.893 -0.553,1.87 -0.553,2.984 0,1.091 0.19,2.113 0.553,2.962 0.38,0.933 0.902,1.736 1.601,2.46 0.615,0.666 1.414,1.221 2.312,1.605 0.913,0.407 1.841,0.604 2.84,0.604 1.007,0 1.962,-0.203 2.846,-0.606 0.815,-0.35 1.583,-0.879 2.329,-1.596 0.675,-0.756 1.221,-1.61 1.58,-2.475 0.38,-0.885 0.581,-1.906 0.581,-2.954 0,-1.069 -0.19,-2.045 -0.584,-2.989 -0.351,-0.866 -0.879,-1.683 -1.559,-2.418 -0.742,-0.741 -1.509,-1.288 -2.323,-1.662 -1.083,-0.401 -1.994,-0.588 -2.87,-0.588 z m 6.17,14.004 c -0.814,0.841 -1.772,1.522 -2.782,1.972 -2.378,0.961 -4.435,0.963 -6.76,-0.006 -1.03,-0.446 -1.989,-1.127 -2.757,-1.955 -0.785,-0.758 -1.44,-1.748 -1.896,-2.869 -0.455,-1.189 -0.677,-2.33 -0.677,-3.489 0,-1.185 0.236,-2.393 0.678,-3.488 0.421,-1.094 1.036,-2.038 1.876,-2.877 0.805,-0.864 1.766,-1.537 2.77,-1.946 1.127,-0.499 2.232,-0.742 3.378,-0.742 1.138,0 2.248,0.242 3.394,0.739 0.987,0.412 1.947,1.083 2.776,1.942 0.787,0.815 1.392,1.755 1.846,2.866 0.455,1.052 0.685,2.232 0.685,3.506 0,1.222 -0.229,2.4 -0.685,3.508 -0.499,1.154 -1.121,2.11 -1.846,2.839"
           style="fill:#656263;fill-opacity:1;fill-rule:nonzero;stroke:none"
           id="path114"
           inkscape:connector-curvature="0" /><path
           d="m 248.71,192.43 -0.653,0 c -0.198,0 -0.358,-0.16 -0.358,-0.357 l 0,-11.467 c 0,-0.701 -0.175,-1.301 -0.339,-1.777 -0.214,-0.519 -0.523,-0.978 -0.953,-1.409 -0.391,-0.416 -0.823,-0.722 -1.334,-0.941 -0.985,-0.473 -2.28,-0.48 -3.303,0.008 -0.48,0.206 -0.921,0.514 -1.341,0.934 -0.384,0.407 -0.704,0.895 -0.922,1.401 -0.216,0.551 -0.317,1.118 -0.317,1.784 l 0,11.467 c 0,0.197 -0.16,0.357 -0.357,0.357 l -0.68,0 c -0.197,0 -0.357,-0.16 -0.357,-0.357 l 0,-11.467 c 0,-0.744 0.142,-1.488 0.434,-2.273 0.259,-0.691 0.668,-1.32 1.208,-1.861 0.5,-0.532 1.098,-0.951 1.77,-1.242 0.709,-0.324 1.416,-0.476 2.224,-0.476 0.809,0 1.515,0.152 2.216,0.473 0.677,0.293 1.273,0.71 1.766,1.233 0.548,0.548 0.958,1.179 1.217,1.873 0.294,0.779 0.436,1.523 0.436,2.273 l 0,11.467 c 0,0.197 -0.16,0.357 -0.357,0.357"
           style="fill:#656263;fill-opacity:1;fill-rule:nonzero;stroke:none"
           id="path116"
           inkscape:connector-curvature="0" /><path
           d="m 266.768,192.43 -10.208,0 c -0.198,0 -0.358,-0.16 -0.358,-0.357 l 0,-0.654 c 0,-0.196 0.16,-0.356 0.358,-0.356 l 4.434,0 0,-15.521 c 0,-0.197 0.16,-0.357 0.357,-0.357 l 0.654,0 c 0.197,0 0.357,0.16 0.357,0.357 l 0,15.521 4.406,0 c 0.197,0 0.357,0.16 0.357,0.356 l 0,0.654 c 0,0.197 -0.16,0.357 -0.357,0.357"
           style="fill:#656263;fill-opacity:1;fill-rule:nonzero;stroke:none"
           id="path118"
           inkscape:connector-curvature="0" /><path
           d="m 123.305,149.358 -10.768,0 0,9.291 9.892,0 c 0.197,0 0.357,0.161 0.357,0.357 l 0,0.77 c 0,0.198 -0.16,0.358 -0.357,0.358 l -9.892,0 0,8.413 10.629,0 c 0.197,0 0.357,0.16 0.357,0.357 l 0,0.771 c 0,0.197 -0.16,0.357 -0.357,0.357 l -11.79,0 c -0.197,0 -0.357,-0.16 -0.357,-0.357 l 0,-21.479 c 0,-0.197 0.16,-0.356 0.357,-0.356 l 11.929,0 c 0.197,0 0.358,0.159 0.358,0.356 l 0,0.805 c 0,0.197 -0.161,0.357 -0.358,0.357"
           style="fill:#0daea3;fill-opacity:1;fill-rule:nonzero;stroke:none"
           id="path120"
           inkscape:connector-curvature="0" /><path
           d="m 140.996,159.215 7.016,10.258 c 0.074,0.109 0.082,0.251 0.021,0.368 -0.062,0.117 -0.184,0.191 -0.316,0.191 l -0.969,0 c -0.118,0 -0.228,-0.059 -0.296,-0.157 l -6.37,-9.401 -6.336,9.404 c -0.067,0.096 -0.177,0.154 -0.294,0.154 l -0.934,0 c -0.132,0 -0.254,-0.073 -0.315,-0.19 -0.062,-0.117 -0.055,-0.259 0.02,-0.368 l 6.943,-10.222 -7.365,-10.855 c -0.074,-0.109 -0.082,-0.251 -0.02,-0.368 0.062,-0.116 0.184,-0.189 0.316,-0.189 l 0.97,0 c 0.119,0 0.23,0.058 0.296,0.157 l 6.717,9.962 6.684,-9.96 c 0.066,-0.1 0.177,-0.159 0.298,-0.159 l 0.932,0 c 0.132,0 0.253,0.072 0.316,0.189 0.061,0.116 0.054,0.258 -0.02,0.367 l -7.294,10.819"
           style="fill:#0daea3;fill-opacity:1;fill-rule:nonzero;stroke:none"
           id="path122"
           inkscape:connector-curvature="0" /><path
           d="m 164.509,159.01 -5.401,0 0,9.537 5.401,0 c 0.669,0 1.307,-0.125 1.947,-0.381 0.553,-0.233 1.067,-0.562 1.598,-1.018 0.434,-0.434 0.794,-0.94 1.087,-1.525 0.26,-0.62 0.381,-1.217 0.381,-1.878 0,-0.633 -0.136,-1.285 -0.373,-1.789 -0.304,-0.639 -0.66,-1.142 -1.095,-1.546 -0.461,-0.463 -0.963,-0.783 -1.598,-1.015 -0.595,-0.252 -1.268,-0.385 -1.947,-0.385 z m 4.585,9.238 c -0.579,0.543 -1.239,0.963 -2.085,1.328 -0.75,0.298 -1.614,0.456 -2.5,0.456 l -6.562,0 c -0.197,0 -0.356,-0.16 -0.356,-0.357 l 0,-21.479 c 0,-0.197 0.159,-0.356 0.356,-0.356 l 0.804,0 c 0.197,0 0.357,0.159 0.357,0.356 l 0,9.296 5.401,0 c 0.831,0 1.697,0.17 2.512,0.495 0.832,0.358 1.492,0.78 2.085,1.334 0.569,0.57 1.039,1.242 1.399,2.007 0.329,0.728 0.502,1.564 0.502,2.417 0,0.938 -0.16,1.727 -0.505,2.491 -0.357,0.76 -0.829,1.434 -1.408,2.012"
           style="fill:#0daea3;fill-opacity:1;fill-rule:nonzero;stroke:none"
           id="path124"
           inkscape:connector-curvature="0" /><path
           d="m 182.307,168.547 6.524,0 c 0.689,0 1.398,-0.14 1.912,-0.381 0.592,-0.25 1.149,-0.6 1.643,-1.03 0.466,-0.433 0.817,-0.942 1.054,-1.539 0.268,-0.54 0.403,-1.164 0.403,-1.852 0,-0.665 -0.13,-1.234 -0.426,-1.83 -0.215,-0.582 -0.559,-1.083 -1.031,-1.494 -0.496,-0.462 -1.043,-0.806 -1.644,-1.026 -0.601,-0.255 -1.245,-0.385 -1.911,-0.385 l -6.524,0 0,9.537 z m 7.754,-10.943 c 0.406,0.082 0.833,0.21 1.281,0.383 0.832,0.358 1.492,0.78 2.087,1.334 0.614,0.615 1.058,1.253 1.398,2.008 0.357,0.792 0.536,1.606 0.536,2.416 0,0.856 -0.179,1.692 -0.539,2.492 -0.326,0.687 -0.796,1.359 -1.409,2.011 -0.579,0.543 -1.238,0.963 -2.086,1.328 -0.748,0.298 -1.611,0.456 -2.498,0.456 l -7.686,0 c -0.198,0 -0.358,-0.16 -0.358,-0.357 l 0,-21.479 c 0,-0.197 0.16,-0.356 0.358,-0.356 l 0.804,0 c 0.197,0 0.358,0.159 0.358,0.356 l 0,9.296 5.987,0 6.732,-9.496 c 0.067,-0.098 0.177,-0.156 0.295,-0.156 l 0.972,0 c 0.134,0 0.256,0.074 0.317,0.193 0.062,0.118 0.051,0.261 -0.026,0.37 l -6.523,9.201"
           style="fill:#0daea3;fill-opacity:1;fill-rule:nonzero;stroke:none"
           id="path126"
           inkscape:connector-curvature="0" /><path
           d="m 218.765,149.358 -10.769,0 0,9.291 9.892,0 c 0.197,0 0.357,0.161 0.357,0.357 l 0,0.77 c 0,0.198 -0.16,0.358 -0.357,0.358 l -9.892,0 0,8.413 10.629,0 c 0.197,0 0.357,0.16 0.357,0.357 l 0,0.771 c 0,0.197 -0.16,0.357 -0.357,0.357 l -11.79,0 c -0.197,0 -0.357,-0.16 -0.357,-0.357 l 0,-21.479 c 0,-0.197 0.16,-0.356 0.357,-0.356 l 11.93,0 c 0.197,0 0.356,0.159 0.356,0.356 l 0,0.805 c 0,0.197 -0.159,0.357 -0.356,0.357"
           style="fill:#0daea3;fill-opacity:1;fill-rule:nonzero;stroke:none"
           id="path128"
           inkscape:connector-curvature="0" /><path
           d="m 241.157,158.186 c -1.227,0.842 -2.849,1.454 -4.953,1.868 -2.065,0.437 -3.51,0.929 -4.532,1.544 -1.117,0.732 -1.638,1.649 -1.638,2.893 -0.036,1.586 0.782,2.63 1.47,3.222 1.085,0.891 2.542,1.36 4.213,1.36 1.544,0 3.008,-0.503 3.924,-1.353 0.95,-0.819 1.436,-1.935 1.406,-3.225 l -0.005,-0.141 c -0.003,-0.097 0.034,-0.191 0.101,-0.26 0.067,-0.071 0.16,-0.11 0.256,-0.11 l 0.806,0 c 0.194,0 0.354,0.156 0.358,0.35 l 0.002,0.137 c 0.036,1.701 -0.627,3.215 -1.922,4.383 -1.256,1.105 -3.052,1.739 -4.926,1.739 -1.968,0 -3.752,-0.597 -5.165,-1.733 -1.309,-1.111 -2.001,-2.627 -2.001,-4.389 0.038,-1.783 0.802,-3.133 2.336,-4.128 1.141,-0.731 2.686,-1.271 5,-1.75 1.989,-0.45 3.425,-0.977 4.357,-1.583 1.027,-0.851 1.505,-1.866 1.505,-3.198 0,-1.279 -0.638,-2.535 -1.762,-3.455 -1.113,-0.983 -2.667,-1.524 -4.375,-1.524 -1.688,0 -3.231,0.543 -4.354,1.538 -1.089,0.888 -1.713,2.143 -1.713,3.441 l 0,0.139 c 0,0.196 -0.16,0.357 -0.357,0.357 l -0.804,0 c -0.197,0 -0.358,-0.161 -0.358,-0.357 l 0,-0.139 c 0,-1.735 0.787,-3.333 2.278,-4.624 1.382,-1.191 3.316,-1.874 5.308,-1.874 1.946,0 3.852,0.663 5.383,1.877 1.464,1.304 2.237,2.902 2.237,4.621 0,1.86 -0.693,3.329 -2.075,4.374"
           style="fill:#0daea3;fill-opacity:1;fill-rule:nonzero;stroke:none"
           id="path130"
           inkscape:connector-curvature="0" /><path
           d="m 265.337,158.186 c -1.224,0.841 -2.846,1.453 -4.95,1.868 -2.067,0.437 -3.511,0.929 -4.534,1.544 -1.117,0.732 -1.636,1.649 -1.636,2.893 -0.037,1.586 0.781,2.631 1.468,3.222 1.084,0.891 2.542,1.36 4.214,1.36 1.544,0 3.006,-0.503 3.921,-1.353 0.951,-0.82 1.438,-1.936 1.408,-3.23 l -0.003,-0.14 c -0.002,-0.097 0.035,-0.19 0.102,-0.258 0.067,-0.069 0.158,-0.108 0.255,-0.108 l 0.803,0 c 0.193,0 0.351,0.154 0.357,0.346 l 0.005,0.141 c 0.035,1.699 -0.629,3.213 -1.924,4.383 -1.257,1.105 -3.051,1.739 -4.924,1.739 -1.97,0 -3.755,-0.597 -5.169,-1.733 -1.306,-1.11 -1.998,-2.626 -1.998,-4.389 0.037,-1.782 0.799,-3.132 2.335,-4.127 1.143,-0.732 2.686,-1.272 5,-1.751 1.991,-0.451 3.427,-0.978 4.359,-1.582 1.025,-0.853 1.504,-1.868 1.504,-3.199 0,-1.279 -0.64,-2.535 -1.764,-3.455 -1.111,-0.983 -2.665,-1.524 -4.374,-1.524 -1.688,0 -3.23,0.543 -4.354,1.537 -1.089,0.89 -1.713,2.145 -1.713,3.442 l 0,0.139 c 0,0.196 -0.161,0.357 -0.358,0.357 l -0.804,0 c -0.197,0 -0.357,-0.161 -0.357,-0.357 l 0,-0.139 c 0,-1.734 0.787,-3.333 2.278,-4.624 1.382,-1.191 3.318,-1.874 5.308,-1.874 1.946,0 3.852,0.663 5.383,1.877 1.464,1.305 2.238,2.903 2.238,4.621 0,1.86 -0.694,3.329 -2.076,4.374"
           style="fill:#0daea3;fill-opacity:1;fill-rule:nonzero;stroke:none"
           id="path132"
           inkscape:connector-curvature="0" /></g></g><g
       id="g150"><g
         id="g152"
         clip-path="url(#clipPath154)"><g
           id="g158"
           clip-path="url(#clipPath160)" /></g></g><g
       id="g172"><g
         id="g174"
         clip-path="url(#clipPath176)" /></g><g
       id="g182"><g
         id="g184"
         clip-path="url(#clipPath186)"><g
           id="g190"
           clip-path="url(#clipPath192)" /></g></g><g
       id="g200"><g
         id="g202"
         clip-path="url(#clipPath204)" /></g></g></svg>