<?xml version="1.0" encoding="UTF-8" standalone="no"?>
<svg
   xmlns:dc="http://purl.org/dc/elements/1.1/"
   xmlns:cc="http://creativecommons.org/ns#"
   xmlns:rdf="http://www.w3.org/1999/02/22-rdf-syntax-ns#"
   xmlns:svg="http://www.w3.org/2000/svg"
   xmlns="http://www.w3.org/2000/svg"
   xmlns:sodipodi="http://sodipodi.sourceforge.net/DTD/sodipodi-0.dtd"
   xmlns:inkscape="http://www.inkscape.org/namespaces/inkscape"
   width="853.77002"
   height="853.77002"
   viewBox="0 0 683.01602 683.01602"
   version="1.1"
   id="svg2"
   inkscape:version="0.48.2 r9819"
   sodipodi:docname="order.svg">
  <metadata
     id="metadata38">
    <rdf:RDF>
      <cc:Work
         rdf:about="">
        <dc:format>image/svg+xml</dc:format>
        <dc:type
           rdf:resource="http://purl.org/dc/dcmitype/StillImage" />
      </cc:Work>
    </rdf:RDF>
  </metadata>
  <defs
     id="defs36" />
  <sodipodi:namedview
     pagecolor="#ffffff"
     bordercolor="#666666"
     borderopacity="1"
     objecttolerance="10"
     gridtolerance="10"
     guidetolerance="10"
     inkscape:pageopacity="0"
     inkscape:pageshadow="2"
     inkscape:window-width="1397"
     inkscape:window-height="809"
     id="namedview34"
     showgrid="false"
     inkscape:zoom="0.42652318"
     inkscape:cx="1107.0663"
     inkscape:cy="232.88913"
     inkscape:window-x="0"
     inkscape:window-y="0"
     inkscape:window-maximized="0"
     inkscape:current-layer="svg2"
     fit-margin-top="0"
     fit-margin-left="0"
     fit-margin-right="0"
     fit-margin-bottom="0" />
  <path
     d="m 439.365,126.00802 c -6.94,2.19 -13.21,8.335 -13.35,15.925 0,133.05 0.02,266.1 0,399.15 0.08,7.89 6.925,14.465 14.425,15.925 l 232.95,0 c 3.59,-1.77 7.105,-3.925 9.625,-7.125 l 0,-416.75 c -2.64,-3.33 -6.295,-5.725 -10.275,-7.125 l -233.375,0 z m 21.65,33 190,0 0,50 -190,0 0,-50 z m 161,31 0,8 12,0 c -0.01,-2.67 -0.01,-5.33 0,-8 l -12,0 z m -161,68 190,0 c -0.01,2.67 -0.01,5.33 0,8 l -190,0 0,-8 z m 0,51 190,0 c -0.01,2.67 -0.01,5.33 0,8 l -190,0 0,-8 z m 95.35,80.95 c 10.78863,0.16645 21.33282,6.98344 25.425,17.1 4.73,10.66 1.73,24.035 -7,31.725 -8.56,7.94 -22.185,9.545 -32.325,3.725 -10.25,-5.5 -16.23,-17.85 -14.05,-29.3 1.8,-11.1 10.935,-20.505 21.975,-22.625 1.97656,-0.44687 3.9771,-0.65582 5.975,-0.625 z"
     id="path6"
     inkscape:connector-curvature="0" />
  <path
     d="m 672.735,126.00802 10.28,0 0,7.12 c -2.64,-3.33 -6.3,-5.72 -10.28,-7.12 z"
     id="path8"
     inkscape:connector-curvature="0"
     style="fill:#fefefe" />
  <path
     d="m 28.99,150.00802 c -2.21,0.01 -4.425,0.17 -6.575,0.65 -12.5600001,2.55 -22.40000012,14.47 -22.40000012,27.3 -0.02,109.04 -0.02,218.06 0,327.1 -0.09,14.81 13.13000012,28.04 27.95000012,27.95 42.37,0.02 84.72,0.02 127.1,0 11.49,-0.04 22.395,-7.88 26.225,-18.7 2.53,-6.47 1.535,-13.53 1.725,-20.3 -0.03,-105.7 0.06,-211.41 -0.05,-317.1 -0.46,-14.43 -13.45,-26.97 -27.9,-26.9 -42.03,-0.03 -84.055,0.03 -126.075,0 z m -18.975,46 163,0 0,284 -163,0 0,-284 z m 81.175,294.95 c 6.857936,-0.12882 13.58718,5.0975 14.625,12.05 1.55,7.6 -4.17,15.63 -11.8,16.8 -7.6,1.55 -15.63,-4.17 -16.8,-11.8 -1.41,-7.02 3.325,-14.47 10.175,-16.4 1.243752,-0.41562 2.530016,-0.62614 3.8,-0.65 z"
     id="path10"
     inkscape:connector-curvature="0" />
  <path
     d="m 328.355,216.31802 c 5.64,-1.93 12.31,-0.46 16.45,3.89 24.89,26.1 41.45,60.1 46.38,95.86 3.81,26.25 1.56,53.36 -6.49,78.65 -8.01,24.98 -21.63,48.22 -39.77,67.2 -5.22,5.67 -14.58,6.51 -20.74,1.88 -5.74,-3.94 -8.19,-11.88 -5.75,-18.39 1.06,-2.98 3.19,-5.39 5.32,-7.68 20.43,-22.41 33.52,-51.45 36.48,-81.66 4.55,-40.67 -9.58,-82.87 -37.54,-112.72 -3.81,-3.65 -5.92,-9.08 -5,-14.34 0.78,-5.79 5.16,-10.83 10.66,-12.69 z"
     id="path18"
     inkscape:connector-curvature="0"
     style="fill:#030303" />
  <path
     d="m 279.345,249.44802 c 5.52,-1.46 11.69,0.52 15.5,4.72 11.34,12.12 20.19,26.56 26.03,42.09 8.87,23.54 10.51,49.71 4.73,74.19 -5.09,21.59 -15.84,41.91 -31.15,57.99 -5.47,6.08 -15.79,6.39 -21.77,0.9 -5.28,-4.4 -7.22,-12.49 -4.04,-18.67 2.26,-3.94 5.54,-7.15 8.27,-10.75 13.01,-16.68 20.2,-37.77 20.12,-58.92 0.03,-21.83 -7.7,-43.59 -21.58,-60.46 -2.93,-3.74 -6.88,-7.06 -7.9,-11.92 -2.23,-8.22 3.54,-17.34 11.79,-19.17 z"
     id="path20"
     inkscape:connector-curvature="0"
     style="fill:#030303" />
  <path
     d="m 227.415,283.51802 c 5.81,-2.09 12.84,-0.58 16.96,4.12 13.47,14.62 20.86,34.56 20.65,54.4 -0.25,19.41 -7.7,38.78 -21.03,52.94 -5.73,6.11 -16.31,6.13 -22.21,0.26 -6.38,-5.84 -6.55,-16.76 -0.39,-22.83 13.52,-15.19 15.46,-39.2 4.55,-56.36 -3.02,-5.3 -8.75,-9.41 -9.01,-15.97 -0.89,-7.09 3.75,-14.27 10.48,-16.56 z"
     id="path24"
     inkscape:connector-curvature="0"
     style="fill:#030303" />
  <path
     d="m 673.395,557.00802 c 3.59,-1.77 7.1,-3.92 9.62,-7.12 l 0,7.12 -9.62,0 z"
     id="path32"
     inkscape:connector-curvature="0"
     style="fill:#fefefe" />
</svg>
