<?xml version="1.0" encoding="UTF-8" standalone="no"?>
<svg
   xmlns:dc="http://purl.org/dc/elements/1.1/"
   xmlns:cc="http://creativecommons.org/ns#"
   xmlns:rdf="http://www.w3.org/1999/02/22-rdf-syntax-ns#"
   xmlns:svg="http://www.w3.org/2000/svg"
   xmlns="http://www.w3.org/2000/svg"
   xmlns:sodipodi="http://sodipodi.sourceforge.net/DTD/sodipodi-0.dtd"
   xmlns:inkscape="http://www.inkscape.org/namespaces/inkscape"
   height="1020"
   width="1020"
   id="svg2"
   version="1.1"
   inkscape:version="0.48.2 r9819"
   sodipodi:docname="angellist.svg">
  <metadata
     id="metadata10">
    <rdf:RDF>
      <cc:Work
         rdf:about="">
        <dc:format>image/svg+xml</dc:format>
        <dc:type
           rdf:resource="http://purl.org/dc/dcmitype/StillImage" />
      </cc:Work>
    </rdf:RDF>
  </metadata>
  <defs
     id="defs8" />
  <sodipodi:namedview
     pagecolor="#ffffff"
     bordercolor="#666666"
     borderopacity="1"
     objecttolerance="10"
     gridtolerance="10"
     guidetolerance="10"
     inkscape:pageopacity="0"
     inkscape:pageshadow="2"
     inkscape:window-width="807"
     inkscape:window-height="588"
     id="namedview6"
     showgrid="false"
     fit-margin-top="0"
     fit-margin-left="0"
     fit-margin-right="0"
     fit-margin-bottom="0"
     inkscape:zoom="0.27080949"
     inkscape:cx="786.68136"
     inkscape:cy="874.60999"
     inkscape:window-x="0"
     inkscape:window-y="0"
     inkscape:window-maximized="0"
     inkscape:current-layer="svg2" />
  <path
     d="m 152,724 q 0,-63 28,-98 23,-31 74,-45 -16,-40 -16,-59 0,-33 35,-70 37,-35 69,-35 17,0 40,9 Q 334,289 313,218 289,137 289,103 289,55 313,28 338,0 380,0 452,0 553,295 l 17,49 q 6,-15 12,-33 100,-292 180,-292 40,0 63,27 24,27 24,70 0,28 -24,113 -21,73 -66,200 57,14 82,54 27,43 27,133 0,178 -106,291 -108,113 -274,113 -66,0 -127,-24 -59,-21 -107,-66 -51,-48 -76,-99 -26,-54 -26,-107 z m 65,-5 q 0,25 14,59 13,32 39,67 41,53 97,81 57,28 129,28 129,0 217,-97 87,-96 87,-243 0,-46 -6,-71 -5,-22 -19,-34 -27,-23 -106,-40 -79,-18 -168,-18 -22,0 -28,6 -7,3 -7,20 0,41 46,58 50,21 165,21 l 28,0 q 16,0 23,11 8,8 11,31 -17,17 -55,31 -36,13 -53,26 -40,29 -64,69 -23,39 -23,74 0,21 10,51 11,33 11,43 l 0,6 -4,15 q -44,-3 -64,-41 -17,-32 -19,-82 -3,1 -12,1 l -11,0 q 1,5 1,12 0,30 -23,51 -23,21 -54,21 -47,0 -95,-45 -48,-46 -48,-90 0,-8 3,-16 1,-7 16,-22 25,31 34,43 42,59 76,59 9,0 17,-6 6,-6 6,-10 0,-8 -12,-29 -8,-15 -37,-53 -28,-36 -45,-50 -15,-14 -22,-14 -19,0 -37,22 -18,22 -18,55 z m 90,-191 q 0,13 16,45 14,27 45,68 31,40 56,62 24,20 36,20 7,0 14,-7 7,-8 7,-16 0,-12 -18,-58 -21,-51 -46,-92 -22,-35 -39,-49 -16,-15 -31,-15 -11,0 -25,15 -15,15 -15,27 z M 352,96 q 0,34 24,107 22,71 66,190 10,-6 28,-6 1,0 6.5,0.5 5.5,0.5 10.5,0.5 4,0 26,2 L 444,190 Q 416,110 400,86 387,65 374,65 q -9,0 -15,8 -7,9 -7,23 z m 166,510 q 9,23 19,50 20,-23 40,-38 -5,-1 -15,-2.5 -10,-1.5 -15,-2.5 -20,-4 -29,-7 z m 105,-204 67,12 q 45,-124 69,-199 25,-81 25,-96 0,-16 -7,-25 -4,-7 -15,-7 -14,0 -31,27 -19,29 -43,101 z"
     id="path4"
     inkscape:connector-curvature="0" />
</svg>
