<?xml version="1.0" encoding="UTF-8" standalone="no"?>
<!-- Created with Inkscape (http://www.inkscape.org/) -->

<svg
   xmlns:dc="http://purl.org/dc/elements/1.1/"
   xmlns:cc="http://creativecommons.org/ns#"
   xmlns:rdf="http://www.w3.org/1999/02/22-rdf-syntax-ns#"
   xmlns:svg="http://www.w3.org/2000/svg"
   xmlns="http://www.w3.org/2000/svg"
   xmlns:sodipodi="http://sodipodi.sourceforge.net/DTD/sodipodi-0.dtd"
   xmlns:inkscape="http://www.inkscape.org/namespaces/inkscape"
   id="svg2"
   version="1.1"
   inkscape:version="0.48.2 r9819"
   width="333.61749"
   height="333.61749"
   xml:space="preserve"
   sodipodi:docname="FB-fLogo-online-broadcast.eps"><metadata
     id="metadata8"><rdf:RDF><cc:Work
         rdf:about=""><dc:format>image/svg+xml</dc:format><dc:type
           rdf:resource="http://purl.org/dc/dcmitype/StillImage" /><dc:title></dc:title></cc:Work></rdf:RDF></metadata><defs
     id="defs6" /><sodipodi:namedview
     pagecolor="#ffffff"
     bordercolor="#666666"
     borderopacity="1"
     objecttolerance="10"
     gridtolerance="10"
     guidetolerance="10"
     inkscape:pageopacity="0"
     inkscape:pageshadow="2"
     inkscape:window-width="1421"
     inkscape:window-height="783"
     id="namedview4"
     showgrid="false"
     fit-margin-top="0"
     fit-margin-left="0"
     fit-margin-right="0"
     fit-margin-bottom="0"
     inkscape:zoom="0.98940733"
     inkscape:cx="126.23645"
     inkscape:cy="192.79386"
     inkscape:window-x="0"
     inkscape:window-y="0"
     inkscape:window-maximized="0"
     inkscape:current-layer="g10" /><g
     id="g10"
     inkscape:groupmode="layer"
     inkscape:label="ink_ext_XXXXXX"
     transform="matrix(1.25,0,0,-1.25,-794.44125,484.30875)"><g
       id="g12"
       transform="scale(0.1,0.1)"><g
         id="g32"
         transform="scale(10,10)" /><g
         id="g38"
         transform="scale(10,10)" /><path
         d="m 8877.17,3874.47 -2374.34,0 c -81.37,0 -147.3,-65.93 -147.3,-147.3 l 0,-2374.34 c 0,-81.35 65.93,-147.3 147.3,-147.3 l 1278.26,0 0,1033.55 -347.81,0 0,402.8 347.81,0 0,297.05 c 0,344.73 210.55,532.44 518.07,532.44 147.3,0 273.91,-10.97 310.8,-15.87 l 0,-360.26 -213.28,-0.1 c -167.25,0 -199.63,-79.47 -199.63,-196.09 l 0,-257.17 398.87,0 -51.94,-402.8 -346.93,0 0,-1033.55 680.12,0 c 81.35,0 147.3,65.95 147.3,147.3 l 0,2374.34 c 0,81.37 -65.95,147.3 -147.3,147.3"
         style="fill:#3d539f;fill-opacity:1;fill-rule:nonzero;stroke:none"
         id="path44"
         inkscape:connector-curvature="0" /></g></g></svg>