<?xml version="1.0" encoding="UTF-8" standalone="no"?>
<!-- Generator: Adobe Illustrator 16.0.0, SVG Export Plug-In . SVG Version: 6.00 Build 0)  -->

<svg
   xmlns:dc="http://purl.org/dc/elements/1.1/"
   xmlns:cc="http://creativecommons.org/ns#"
   xmlns:rdf="http://www.w3.org/1999/02/22-rdf-syntax-ns#"
   xmlns:svg="http://www.w3.org/2000/svg"
   xmlns="http://www.w3.org/2000/svg"
   xmlns:sodipodi="http://sodipodi.sourceforge.net/DTD/sodipodi-0.dtd"
   xmlns:inkscape="http://www.inkscape.org/namespaces/inkscape"
   version="1.1"
   id="Layer_1"
   x="0px"
   y="0px"
   width="144.004"
   height="144"
   viewBox="0 0 144.00399 144"
   enable-background="new 0 0 568.291 144"
   xml:space="preserve"
   inkscape:version="0.48.2 r9819"
   sodipodi:docname="LinkedIn_Logo_2013.svg"><metadata
   id="metadata37"><rdf:RDF><cc:Work
       rdf:about=""><dc:format>image/svg+xml</dc:format><dc:type
         rdf:resource="http://purl.org/dc/dcmitype/StillImage" /></cc:Work></rdf:RDF></metadata><defs
   id="defs35" /><sodipodi:namedview
   pagecolor="#ffffff"
   bordercolor="#666666"
   borderopacity="1"
   objecttolerance="10"
   gridtolerance="10"
   guidetolerance="10"
   inkscape:pageopacity="0"
   inkscape:pageshadow="2"
   inkscape:window-width="847"
   inkscape:window-height="601"
   id="namedview33"
   showgrid="false"
   fit-margin-top="0"
   fit-margin-left="0"
   fit-margin-right="0"
   fit-margin-bottom="0"
   inkscape:zoom="1.7519305"
   inkscape:cx="-20.702719"
   inkscape:cy="69.905182"
   inkscape:window-x="0"
   inkscape:window-y="0"
   inkscape:window-maximized="0"
   inkscape:current-layer="Layer_1" />
<g
   id="g3"
   transform="translate(-424.28701,0)">
	<g
   id="g5">
		<g
   id="g7">
			<g
   id="g9">
				<g
   id="g11">
					
					<g
   id="g15">
						
					</g>
					
					
					
					
				</g>
				<path
   d="M 557.632,0 H 434.916 c -5.864,0 -10.629,4.648 -10.629,10.376 V 133.61 c 0,5.734 4.765,10.39 10.629,10.39 h 122.716 c 5.874,0 10.659,-4.655 10.659,-10.39 V 10.376 C 568.291,4.648 563.506,0 557.632,0 z"
   id="path27"
   inkscape:connector-curvature="0"
   style="fill:#0977b5;fill-opacity:1" />
				<path
   d="m 445.638,53.985 h 21.359 v 68.722 H 445.638 V 53.985 z m 10.684,-34.16 c 6.828,0 12.377,5.549 12.377,12.38 0,6.837 -5.549,12.386 -12.377,12.386 -6.846,0 -12.387,-5.549 -12.387,-12.386 10e-4,-6.83 5.542,-12.38 12.387,-12.38"
   id="path29"
   inkscape:connector-curvature="0"
   style="fill:#ffffff" />
				<path
   d="m 480.394,53.985 h 20.485 v 9.39 h 0.286 c 2.852,-5.403 9.818,-11.099 20.209,-11.099 21.628,0 25.621,14.234 25.621,32.736 v 37.694 h -21.344 v -33.42 c 0,-7.969 -0.146,-18.22 -11.099,-18.22 -11.113,0 -12.819,8.681 -12.819,17.644 v 33.996 h -21.34 V 53.985 z"
   id="path31"
   inkscape:connector-curvature="0"
   style="fill:#ffffff" />
			</g>
		</g>
	</g>
</g>
</svg>