<?xml version="1.0" encoding="UTF-8" standalone="no"?>
<!-- Created with Inkscape (http://www.inkscape.org/) -->

<svg
   xmlns:dc="http://purl.org/dc/elements/1.1/"
   xmlns:cc="http://creativecommons.org/ns#"
   xmlns:rdf="http://www.w3.org/1999/02/22-rdf-syntax-ns#"
   xmlns:svg="http://www.w3.org/2000/svg"
   xmlns="http://www.w3.org/2000/svg"
   version="1.1"
   width="512"
   height="512"
   id="svg2">
  <metadata
     id="metadata8">
    <rdf:RDF>
      <cc:Work
         rdf:about="">
        <dc:format>image/svg+xml</dc:format>
        <dc:type
           rdf:resource="http://purl.org/dc/dcmitype/StillImage" />
        <dc:title></dc:title>
      </cc:Work>
    </rdf:RDF>
  </metadata>
  <defs
     id="defs6" />
  <g
     id="layer1"
     style="display:inline">
    <path
       d="m 272,0 0,240 240,0 C 512,107.46166 404.55683,0 272.03125,0 L 272,0 z m 25,28.03125 C 394.97263,39.454617 472.75198,117.06863 484.4375,215 L 297,215 297,28.03125 z M 240,32 C 107.53849,32.050601 0.15625,139.47882 0.15625,272 c 0,132.5524 107.43297,240 239.9375,240 C 372.59828,512 480,404.5524 480,272 l -240,0 0,-240 z M 215,58.28125 215,297 453.625,297 C 441.1993,403.96724 350.32475,487 240.03125,487 121.25183,487 24.96875,390.69387 24.96875,271.90625 24.96875,161.58328 108.00945,70.67914 215,58.28125 z"
       id="path2989"
       style="fill:#000000;fill-opacity:1;fill-rule:evenodd;stroke:none" />
  </g>
</svg>
