<?xml version="1.0" encoding="UTF-8" standalone="no"?>
<!-- Created with Inkscape (http://www.inkscape.org/) -->

<svg
   xmlns:dc="http://purl.org/dc/elements/1.1/"
   xmlns:cc="http://creativecommons.org/ns#"
   xmlns:rdf="http://www.w3.org/1999/02/22-rdf-syntax-ns#"
   xmlns:svg="http://www.w3.org/2000/svg"
   xmlns="http://www.w3.org/2000/svg"
   xmlns:sodipodi="http://sodipodi.sourceforge.net/DTD/sodipodi-0.dtd"
   xmlns:inkscape="http://www.inkscape.org/namespaces/inkscape"
   id="svg2"
   version="1.1"
   inkscape:version="0.48.2 r9819"
   width="123.59125"
   height="171.145"
   xml:space="preserve"
   sodipodi:docname="logo-icon.svg"><metadata
     id="metadata8"><rdf:RDF><cc:Work
         rdf:about=""><dc:format>image/svg+xml</dc:format><dc:type
           rdf:resource="http://purl.org/dc/dcmitype/StillImage" /><dc:title /></cc:Work></rdf:RDF></metadata><defs
     id="defs6"><clipPath
       clipPathUnits="userSpaceOnUse"
       id="clipPath18"><path
         d="M 0,0 268,0 268,235 0,235 0,0 z"
         id="path20"
         inkscape:connector-curvature="0" /></clipPath><clipPath
       clipPathUnits="userSpaceOnUse"
       id="clipPath28"><path
         d="m 0.06,234.917 267.353,0 0,-234.857 -267.353,0 0,234.857 z"
         id="path30"
         inkscape:connector-curvature="0" /></clipPath><clipPath
       clipPathUnits="userSpaceOnUse"
       id="clipPath34"><path
         d="M 0,0 268,0 268,235 0,235 0,0 z"
         id="path36"
         inkscape:connector-curvature="0" /></clipPath><clipPath
       clipPathUnits="userSpaceOnUse"
       id="clipPath56"><path
         d="M 0,0 268,0 268,235 0,235 0,0 z"
         id="path58"
         inkscape:connector-curvature="0" /></clipPath><clipPath
       clipPathUnits="userSpaceOnUse"
       id="clipPath68"><path
         d="m 0.06,234.917 267.353,0 0,-234.857 -267.353,0 0,234.857 z"
         id="path70"
         inkscape:connector-curvature="0" /></clipPath><clipPath
       clipPathUnits="userSpaceOnUse"
       id="clipPath74"><path
         d="M 0,0 268,0 268,235 0,235 0,0 z"
         id="path76"
         inkscape:connector-curvature="0" /></clipPath><clipPath
       clipPathUnits="userSpaceOnUse"
       id="clipPath86"><path
         d="M 0,0 268,0 268,235 0,235 0,0 z"
         id="path88"
         inkscape:connector-curvature="0" /></clipPath><clipPath
       clipPathUnits="userSpaceOnUse"
       id="clipPath154"><path
         d="m 0.06,234.917 267.353,0 0,-234.857 -267.353,0 0,234.857 z"
         id="path156"
         inkscape:connector-curvature="0" /></clipPath><clipPath
       clipPathUnits="userSpaceOnUse"
       id="clipPath160"><path
         d="M 0,0 268,0 268,235 0,235 0,0 z"
         id="path162"
         inkscape:connector-curvature="0" /></clipPath><clipPath
       clipPathUnits="userSpaceOnUse"
       id="clipPath176"><path
         d="M 0,0 268,0 268,235 0,235 0,0 z"
         id="path178"
         inkscape:connector-curvature="0" /></clipPath><clipPath
       clipPathUnits="userSpaceOnUse"
       id="clipPath186"><path
         d="m 0.06,234.917 267.353,0 0,-234.857 -267.353,0 0,234.857 z"
         id="path188"
         inkscape:connector-curvature="0" /></clipPath><clipPath
       clipPathUnits="userSpaceOnUse"
       id="clipPath192"><path
         d="M 0,0 268,0 268,235 0,235 0,0 z"
         id="path194"
         inkscape:connector-curvature="0" /></clipPath><clipPath
       clipPathUnits="userSpaceOnUse"
       id="clipPath204"><path
         d="M 0,0 268,0 268,235 0,235 0,0 z"
         id="path206"
         inkscape:connector-curvature="0" /></clipPath></defs><sodipodi:namedview
     pagecolor="#ffffff"
     bordercolor="#666666"
     borderopacity="1"
     objecttolerance="10"
     gridtolerance="10"
     guidetolerance="10"
     inkscape:pageopacity="0"
     inkscape:pageshadow="2"
     inkscape:window-width="1440"
     inkscape:window-height="768"
     id="namedview4"
     showgrid="false"
     fit-margin-top="0"
     fit-margin-left="0"
     fit-margin-right="0"
     fit-margin-bottom="0"
     inkscape:zoom="25.711188"
     inkscape:cx="131.23851"
     inkscape:cy="143.82036"
     inkscape:window-x="0"
     inkscape:window-y="0"
     inkscape:window-maximized="1"
     inkscape:current-layer="g10" /><g
     id="g10"
     inkscape:groupmode="layer"
     inkscape:label="CheckoutExpress_Logo"
     transform="matrix(1.25,0,0,-1.25,-0.075,293.64625)"><g
       id="g12" /><g
       id="g14"><g
         id="g16"
         clip-path="url(#clipPath18)"><path
           d="m 85.11,116.425 c 0,-0.534 -0.433,-0.969 -0.969,-0.969 l -13.382,0 c -0.533,0 -0.969,0.435 -0.969,0.969 l 0,100.115 c 0,0.534 0.436,0.968 0.969,0.968 l 13.382,0 c 0.536,0 0.969,-0.434 0.969,-0.968 l 0,-100.115"
           style="fill:#0daea3;fill-opacity:1;fill-rule:nonzero;stroke:none"
           id="path22"
           inkscape:connector-curvature="0" /></g></g><g
       id="g24"><g
         id="g26"
         clip-path="url(#clipPath28)"><g
           id="g32"
           clip-path="url(#clipPath34)"><path
             d="m 98.933,116.341 c 0,-0.535 -0.434,-0.97 -0.969,-0.97 l -3.313,0 c -0.534,0 -0.969,0.435 -0.969,0.97 l 0,100.2 c 0,0.535 0.435,0.969 0.969,0.969 l 3.313,0 c 0.535,0 0.969,-0.434 0.969,-0.969 l 0,-100.2"
             style="fill:#0daea3;fill-opacity:1;fill-rule:nonzero;stroke:none"
             id="path38"
             inkscape:connector-curvature="0" /><path
             d="m 32.7,203.47 c 0,-0.524 -0.426,-0.951 -0.952,-0.951 l -30.778,0 c -0.525,0 -0.953,0.427 -0.953,0.951 l 0,30.494 c 0,0.526 0.428,0.953 0.953,0.953 l 30.778,0 c 0.526,0 0.952,-0.427 0.952,-0.953 l 0,-30.494"
             style="fill:#4fc3ae;fill-opacity:1;fill-rule:nonzero;stroke:none"
             id="path40"
             inkscape:connector-curvature="0" /><path
             d="m 67.585,133.673 c 0,-0.525 -0.425,-0.951 -0.952,-0.951 l -30.838,0 c -0.524,0 -0.953,0.426 -0.953,0.951 l 0,30.745 c 0,0.524 0.429,0.952 0.953,0.952 l 30.838,0 c 0.527,0 0.952,-0.428 0.952,-0.952 l 0,-30.745"
             style="fill:#8cd7b2;fill-opacity:1;fill-rule:nonzero;stroke:none"
             id="path42"
             inkscape:connector-curvature="0" /><path
             d="m 67.585,168.52 c 0,-0.527 -0.425,-0.954 -0.952,-0.954 l -65.679,0 c -0.527,0 -0.953,0.427 -0.953,0.954 l 0,13.319 c 0,0.526 0.426,0.952 0.953,0.952 l 65.679,0 c 0.527,0 0.952,-0.426 0.952,-0.952 l 0,-13.319"
             style="fill:#70cfc2;fill-opacity:1;fill-rule:nonzero;stroke:none"
             id="path44"
             inkscape:connector-curvature="0" /><path
             d="m 50.166,185.942 c 0,-0.535 -0.434,-0.969 -0.969,-0.969 l -13.382,0 c -0.533,0 -0.969,0.434 -0.969,0.969 l 0,47.982 c 0,0.535 0.436,0.969 0.969,0.969 l 13.382,0 c 0.535,0 0.969,-0.434 0.969,-0.969 l 0,-47.982"
             style="fill:#70cfc2;fill-opacity:1;fill-rule:nonzero;stroke:none"
             id="path46"
             inkscape:connector-curvature="0" /><path
             d="m 15.339,185.938 c 0,-0.535 -0.433,-0.969 -0.969,-0.969 l -13.381,0 c -0.534,0 -0.969,0.434 -0.969,0.969 l 0,13.299 c 0,0.535 0.435,0.968 0.969,0.968 l 13.381,0 c 0.536,0 0.969,-0.433 0.969,-0.968 l 0,-13.299"
             style="fill:#ade3d0;fill-opacity:1;fill-rule:nonzero;stroke:none"
             id="path48"
             inkscape:connector-curvature="0" /><path
             d="m 15.32,116.408 c 0,-0.535 -0.434,-0.969 -0.969,-0.969 l -13.382,0 C 0.436,115.439 0,115.873 0,116.408 L 0,164.4 c 0,0.536 0.436,0.969 0.969,0.969 l 13.382,0 c 0.535,0 0.969,-0.433 0.969,-0.969 l 0,-47.992"
             style="fill:#4fc3ae;fill-opacity:1;fill-rule:nonzero;stroke:none"
             id="path50"
             inkscape:connector-curvature="0" /></g></g></g><g
       id="g52"><g
         id="g54"
         clip-path="url(#clipPath56)"><path
           d="m 32.802,151.103 c 0,-0.536 -0.434,-0.97 -0.969,-0.97 l -13.382,0 c -0.534,0 -0.97,0.434 -0.97,0.97 l 0,13.298 c 0,0.535 0.436,0.969 0.97,0.969 l 13.382,0 c 0.535,0 0.969,-0.434 0.969,-0.969 l 0,-13.298"
           style="fill:#ade3d0;fill-opacity:1;fill-rule:nonzero;stroke:none"
           id="path60"
           inkscape:connector-curvature="0" /><path
           d="m 32.802,98.97 c 0,-0.535 -0.434,-0.969 -0.969,-0.969 l -13.382,0 c -0.534,0 -0.97,0.434 -0.97,0.969 l 0,30.718 c 0,0.536 0.436,0.969 0.97,0.969 l 13.382,0 c 0.535,0 0.969,-0.433 0.969,-0.969 l 0,-30.718"
           style="fill:#8cd7b2;fill-opacity:1;fill-rule:nonzero;stroke:none"
           id="path62"
           inkscape:connector-curvature="0" /></g></g><g
       id="g64"><g
         id="g66"
         clip-path="url(#clipPath68)"><g
           id="g72"
           clip-path="url(#clipPath74)"><path
             d="m 32.801,133.804 c 0,-0.535 -0.433,-0.969 -0.969,-0.969 l -13.382,0 c -0.533,0 -0.969,0.434 -0.969,0.969 l 0,13.298 c 0,0.536 0.436,0.969 0.969,0.969 l 13.382,0 c 0.536,0 0.969,-0.433 0.969,-0.969 l 0,-13.298"
             style="fill:#70cfc2;fill-opacity:1;fill-rule:nonzero;stroke:none"
             id="path78"
             inkscape:connector-curvature="0" /><path
             d="m 15.322,98.986 c 0,-0.535 -0.433,-0.969 -0.969,-0.969 l -13.381,0 c -0.534,0 -0.97,0.434 -0.97,0.969 l 0,13.299 c 0,0.534 0.436,0.968 0.97,0.968 l 13.381,0 c 0.536,0 0.969,-0.434 0.969,-0.968 l 0,-13.299"
             style="fill:#70cfc2;fill-opacity:1;fill-rule:nonzero;stroke:none"
             id="path80"
             inkscape:connector-curvature="0" /></g></g></g><g
       id="g82"><g
         id="g84"
         clip-path="url(#clipPath86)"><path
           d="m 50.165,116.4 c 0,-0.535 -0.434,-0.969 -0.969,-0.969 l -13.382,0 c -0.534,0 -0.969,0.434 -0.969,0.969 l 0,13.299 c 0,0.534 0.435,0.968 0.969,0.968 l 13.382,0 c 0.535,0 0.969,-0.434 0.969,-0.968 l 0,-13.299"
           style="fill:#4fc3ae;fill-opacity:1;fill-rule:nonzero;stroke:none"
           id="path90"
           inkscape:connector-curvature="0" /><path
           d="m 67.627,116.4 c 0,-0.535 -0.433,-0.969 -0.969,-0.969 l -13.382,0 c -0.533,0 -0.969,0.434 -0.969,0.969 l 0,13.299 c 0,0.534 0.436,0.968 0.969,0.968 l 13.382,0 c 0.536,0 0.969,-0.434 0.969,-0.968 l 0,-13.299"
           style="fill:#70cfc2;fill-opacity:1;fill-rule:nonzero;stroke:none"
           id="path92"
           inkscape:connector-curvature="0" /><path
           d="m 67.585,98.994 c 0,-0.535 -0.433,-0.969 -0.969,-0.969 l -30.791,0 c -0.533,0 -0.969,0.434 -0.969,0.969 l 0,13.298 c 0,0.535 0.436,0.969 0.969,0.969 l 30.791,0 c 0.536,0 0.969,-0.434 0.969,-0.969 l 0,-13.298"
           style="fill:#8cd7b2;fill-opacity:1;fill-rule:nonzero;stroke:none"
           id="path94"
           inkscape:connector-curvature="0" /><path
           d="m 32.802,185.938 c 0,-0.535 -0.433,-0.969 -0.969,-0.969 l -13.381,0 c -0.534,0 -0.97,0.434 -0.97,0.969 l 0,13.299 c 0,0.535 0.436,0.968 0.97,0.968 l 13.381,0 c 0.536,0 0.969,-0.433 0.969,-0.968 l 0,-13.299"
           style="fill:#8cd7b2;fill-opacity:1;fill-rule:nonzero;stroke:none"
           id="path96"
           inkscape:connector-curvature="0" /><path
           d="m 67.648,220.644 c 0,-0.535 -0.434,-0.969 -0.969,-0.969 l -13.382,0 c -0.534,0 -0.969,0.434 -0.969,0.969 l 0,13.299 c 0,0.535 0.435,0.969 0.969,0.969 l 13.382,0 c 0.535,0 0.969,-0.434 0.969,-0.969 l 0,-13.299"
           style="fill:#8cd7b2;fill-opacity:1;fill-rule:nonzero;stroke:none"
           id="path98"
           inkscape:connector-curvature="0" /><path
           d="m 67.648,203.34 c 0,-0.535 -0.434,-0.969 -0.969,-0.969 l -13.382,0 c -0.534,0 -0.969,0.434 -0.969,0.969 l 0,13.299 c 0,0.535 0.435,0.968 0.969,0.968 l 13.382,0 c 0.535,0 0.969,-0.433 0.969,-0.968 l 0,-13.299"
           style="fill:#ade3d0;fill-opacity:1;fill-rule:nonzero;stroke:none"
           id="path100"
           inkscape:connector-curvature="0" /><path
           d="m 67.648,185.917 c 0,-0.534 -0.434,-0.969 -0.969,-0.969 l -13.382,0 c -0.534,0 -0.969,0.435 -0.969,0.969 l 0,13.299 c 0,0.535 0.435,0.969 0.969,0.969 l 13.382,0 c 0.535,0 0.969,-0.434 0.969,-0.969 l 0,-13.299"
           style="fill:#4fc3ae;fill-opacity:1;fill-rule:nonzero;stroke:none"
           id="path102"
           inkscape:connector-curvature="0" /></g></g><g
       id="g150"><g
         id="g152"
         clip-path="url(#clipPath154)"><g
           id="g158"
           clip-path="url(#clipPath160)" /></g></g><g
       id="g172"><g
         id="g174"
         clip-path="url(#clipPath176)" /></g><g
       id="g182"><g
         id="g184"
         clip-path="url(#clipPath186)"><g
           id="g190"
           clip-path="url(#clipPath192)" /></g></g><g
       id="g200"><g
         id="g202"
         clip-path="url(#clipPath204)" /></g></g></svg>