<?xml version="1.0" encoding="UTF-8" standalone="no"?>
<!-- Created with Inkscape (http://www.inkscape.org/) -->

<svg
   xmlns:dc="http://purl.org/dc/elements/1.1/"
   xmlns:cc="http://creativecommons.org/ns#"
   xmlns:rdf="http://www.w3.org/1999/02/22-rdf-syntax-ns#"
   xmlns:svg="http://www.w3.org/2000/svg"
   xmlns="http://www.w3.org/2000/svg"
   xmlns:sodipodi="http://sodipodi.sourceforge.net/DTD/sodipodi-0.dtd"
   xmlns:inkscape="http://www.inkscape.org/namespaces/inkscape"
   id="svg3004"
   version="1.1"
   inkscape:version="0.48.2 r9819"
   width="718.26001"
   height="366.71375"
   xml:space="preserve"
   sodipodi:docname="CheckoutExpress_Logo.svg"><metadata
     id="metadata3010"><rdf:RDF><cc:Work
         rdf:about=""><dc:format>image/svg+xml</dc:format><dc:type
           rdf:resource="http://purl.org/dc/dcmitype/StillImage" /><dc:title></dc:title></cc:Work></rdf:RDF></metadata><defs
     id="defs3008"><clipPath
       clipPathUnits="userSpaceOnUse"
       id="clipPath3020"><path
         d="m 18,144 576,0 0,504 -576,0 0,-504 z"
         id="path3022"
         inkscape:connector-curvature="0" /></clipPath><clipPath
       clipPathUnits="userSpaceOnUse"
       id="clipPath3030"><path
         d="m 18.12896,648.8962 574.60944,0 0,-504.7672 -574.60944,0 0,504.7672 z"
         id="path3032"
         inkscape:connector-curvature="0" /></clipPath><clipPath
       clipPathUnits="userSpaceOnUse"
       id="clipPath3036"><path
         d="m 18,144 576,0 0,504 -576,0 0,-504 z"
         id="path3038"
         inkscape:connector-curvature="0" /></clipPath><clipPath
       clipPathUnits="userSpaceOnUse"
       id="clipPath3058"><path
         d="m 18,144 576,0 0,504 -576,0 0,-504 z"
         id="path3060"
         inkscape:connector-curvature="0" /></clipPath><clipPath
       clipPathUnits="userSpaceOnUse"
       id="clipPath3070"><path
         d="m 18.12896,648.8962 574.60944,0 0,-504.7672 -574.60944,0 0,504.7672 z"
         id="path3072"
         inkscape:connector-curvature="0" /></clipPath><clipPath
       clipPathUnits="userSpaceOnUse"
       id="clipPath3076"><path
         d="m 18,144 576,0 0,504 -576,0 0,-504 z"
         id="path3078"
         inkscape:connector-curvature="0" /></clipPath><clipPath
       clipPathUnits="userSpaceOnUse"
       id="clipPath3088"><path
         d="m 18,144 576,0 0,504 -576,0 0,-504 z"
         id="path3090"
         inkscape:connector-curvature="0" /></clipPath><clipPath
       clipPathUnits="userSpaceOnUse"
       id="clipPath3156"><path
         d="m 18.12896,648.8962 574.60944,0 0,-504.7672 -574.60944,0 0,504.7672 z"
         id="path3158"
         inkscape:connector-curvature="0" /></clipPath><clipPath
       clipPathUnits="userSpaceOnUse"
       id="clipPath3162"><path
         d="m 18,144 576,0 0,504 -576,0 0,-504 z"
         id="path3164"
         inkscape:connector-curvature="0" /></clipPath><clipPath
       clipPathUnits="userSpaceOnUse"
       id="clipPath3178"><path
         d="m 18,144 576,0 0,504 -576,0 0,-504 z"
         id="path3180"
         inkscape:connector-curvature="0" /></clipPath><clipPath
       clipPathUnits="userSpaceOnUse"
       id="clipPath3188"><path
         d="m 18.12896,648.8962 574.60944,0 0,-504.7672 -574.60944,0 0,504.7672 z"
         id="path3190"
         inkscape:connector-curvature="0" /></clipPath><clipPath
       clipPathUnits="userSpaceOnUse"
       id="clipPath3194"><path
         d="m 18,144 576,0 0,504 -576,0 0,-504 z"
         id="path3196"
         inkscape:connector-curvature="0" /></clipPath><clipPath
       clipPathUnits="userSpaceOnUse"
       id="clipPath3206"><path
         d="m 18,144 576,0 0,504 -576,0 0,-504 z"
         id="path3208"
         inkscape:connector-curvature="0" /></clipPath></defs><sodipodi:namedview
     pagecolor="#ffffff"
     bordercolor="#666666"
     borderopacity="1"
     objecttolerance="10"
     gridtolerance="10"
     guidetolerance="10"
     inkscape:pageopacity="0"
     inkscape:pageshadow="2"
     inkscape:window-width="1440"
     inkscape:window-height="768"
     id="namedview3006"
     showgrid="false"
     inkscape:zoom="3.6805281"
     inkscape:cx="-58.23352"
     inkscape:cy="142.5433"
     inkscape:window-x="0"
     inkscape:window-y="0"
     inkscape:window-maximized="1"
     inkscape:current-layer="g3012"
     fit-margin-top="0"
     fit-margin-left="0"
     fit-margin-right="2.7755576e-17"
     fit-margin-bottom="0" /><g
     id="g3012"
     inkscape:groupmode="layer"
     inkscape:label="CheckoutExpress_Logo.pdf"
     transform="matrix(1.25,0,0,-1.25,-22.6612,810)"><g
       id="g3271"><g
         id="g3014" /><g
         id="g3016"><g
           clip-path="url(#clipPath3020)"
           id="g3018"><path
             id="path3024"
             style="fill:#0daea3;fill-opacity:1;fill-rule:nonzero;stroke:none"
             d="m 200.923,394.2269 c 0,-1.1477 -0.9306,-2.0827 -2.0826,-2.0827 l -28.7614,0 c -1.1455,0 -2.0826,0.935 -2.0826,2.0827 l 0,215.1725 c 0,1.1477 0.9371,2.0805 2.0826,2.0805 l 28.7614,0 c 1.152,0 2.0826,-0.9328 2.0826,-2.0805 l 0,-215.1725"
             inkscape:connector-curvature="0" /></g></g><g
         id="g3026"><g
           clip-path="url(#clipPath3030)"
           id="g3028"><g
             clip-path="url(#clipPath3036)"
             id="g3034"><path
               id="path3040"
               style="fill:#0daea3;fill-opacity:1;fill-rule:nonzero;stroke:none"
               d="m 230.6321,394.0463 c 0,-1.1498 -0.9328,-2.0847 -2.0826,-2.0847 l -7.1205,0 c -1.1477,0 -2.0826,0.9349 -2.0826,2.0847 l 0,215.3553 c 0,1.1498 0.9349,2.0826 2.0826,2.0826 l 7.1205,0 c 1.1498,0 2.0826,-0.9328 2.0826,-2.0826 l 0,-215.3553"
               inkscape:connector-curvature="0" /><path
               id="path3042"
               style="fill:#4fc3ae;fill-opacity:1;fill-rule:nonzero;stroke:none"
               d="m 88.2806,581.3087 c 0,-1.1263 -0.91559,-2.044 -2.04609,-2.044 l -66.14973,0 c -1.12836,0 -2.04824,0.9177 -2.04824,2.044 l 0,65.5393 c 0,1.1305 0.91988,2.0482 2.04824,2.0482 l 66.14973,0 c 1.1305,0 2.04609,-0.9177 2.04609,-2.0482 l 0,-65.5393"
               inkscape:connector-curvature="0" /><path
               id="path3044"
               style="fill:#8cd7b2;fill-opacity:1;fill-rule:nonzero;stroke:none"
               d="m 163.2573,431.2972 c 0,-1.1284 -0.9134,-2.0439 -2.0461,-2.0439 l -66.27866,0 c -1.12621,0 -2.04824,0.9155 -2.04824,2.0439 l 0,66.0788 c 0,1.1262 0.92203,2.0461 2.04824,2.0461 l 66.27866,0 c 1.1327,0 2.0461,-0.9199 2.0461,-2.0461 l 0,-66.0788"
               inkscape:connector-curvature="0" /><path
               id="path3046"
               style="fill:#70cfc2;fill-opacity:1;fill-rule:nonzero;stroke:none"
               d="m 163.2573,506.1922 c 0,-1.1326 -0.9134,-2.0503 -2.0461,-2.0503 l -141.16081,0 c -1.13266,0 -2.04824,0.9177 -2.04824,2.0503 l 0,28.6259 c 0,1.1306 0.91558,2.0461 2.04824,2.0461 l 141.16081,0 c 1.1327,0 2.0461,-0.9155 2.0461,-2.0461 l 0,-28.6259"
               inkscape:connector-curvature="0" /><path
               id="path3048"
               style="fill:#70cfc2;fill-opacity:1;fill-rule:nonzero;stroke:none"
               d="m 125.8195,543.6365 c 0,-1.1498 -0.9328,-2.0826 -2.0827,-2.0826 l -28.76128,0 c -1.14555,0 -2.08262,0.9328 -2.08262,2.0826 l 0,103.1255 c 0,1.1499 0.93707,2.0827 2.08262,2.0827 l 28.76128,0 c 1.1499,0 2.0827,-0.9328 2.0827,-2.0827 l 0,-103.1255"
               inkscape:connector-curvature="0" /><path
               id="path3050"
               style="fill:#ade3d0;fill-opacity:1;fill-rule:nonzero;stroke:none"
               d="m 50.9674,543.6279 c 0,-1.1498 -0.93062,-2.0826 -2.08262,-2.0826 l -28.75917,0 c -1.1477,0 -2.08262,0.9328 -2.08262,2.0826 l 0,28.583 c 0,1.1498 0.93492,2.0804 2.08262,2.0804 l 28.75917,0 c 1.152,0 2.08262,-0.9306 2.08262,-2.0804 l 0,-28.583"
               inkscape:connector-curvature="0" /><path
               id="path3052"
               style="fill:#4fc3ae;fill-opacity:1;fill-rule:nonzero;stroke:none"
               d="m 50.92657,394.1903 c 0,-1.1498 -0.93278,-2.0826 -2.08263,-2.0826 l -28.76131,0 C 18.93707,392.1077 18,393.0405 18,394.1903 l 0,103.147 c 0,1.152 0.93707,2.0826 2.08263,2.0826 l 28.76131,0 c 1.14985,0 2.08263,-0.9306 2.08263,-2.0826 l 0,-103.147"
               inkscape:connector-curvature="0" /></g></g></g><g
         id="g3054"><g
           clip-path="url(#clipPath3058)"
           id="g3056"><path
             id="path3062"
             style="fill:#ade3d0;fill-opacity:1;fill-rule:nonzero;stroke:none"
             d="m 88.49982,468.7587 c 0,-1.152 -0.93278,-2.0848 -2.08263,-2.0848 l -28.76131,0 c -1.1477,0 -2.08478,0.9328 -2.08478,2.0848 l 0,28.5808 c 0,1.1498 0.93708,2.0826 2.08478,2.0826 l 28.76131,0 c 1.14985,0 2.08263,-0.9328 2.08263,-2.0826 l 0,-28.5808"
             inkscape:connector-curvature="0" /><path
             id="path3064"
             style="fill:#8cd7b2;fill-opacity:1;fill-rule:nonzero;stroke:none"
             d="m 88.49982,356.7116 c 0,-1.1498 -0.93278,-2.0826 -2.08263,-2.0826 l -28.76131,0 c -1.1477,0 -2.08478,0.9328 -2.08478,2.0826 l 0,66.0208 c 0,1.152 0.93708,2.0826 2.08478,2.0826 l 28.76131,0 c 1.14985,0 2.08263,-0.9306 2.08263,-2.0826 l 0,-66.0208"
             inkscape:connector-curvature="0" /></g></g><g
         id="g3066"><g
           clip-path="url(#clipPath3070)"
           id="g3068"><g
             clip-path="url(#clipPath3076)"
             id="g3074"><path
               id="path3080"
               style="fill:#70cfc2;fill-opacity:1;fill-rule:nonzero;stroke:none"
               d="m 88.49767,431.5787 c 0,-1.1498 -0.93063,-2.0826 -2.08263,-2.0826 l -28.76131,0 c -1.14555,0 -2.08263,0.9328 -2.08263,2.0826 l 0,28.5808 c 0,1.152 0.93708,2.0826 2.08263,2.0826 l 28.76131,0 c 1.152,0 2.08263,-0.9306 2.08263,-2.0826 l 0,-28.5808"
               inkscape:connector-curvature="0" /><path
               id="path3082"
               style="fill:#70cfc2;fill-opacity:1;fill-rule:nonzero;stroke:none"
               d="m 50.93087,356.746 c 0,-1.1498 -0.93063,-2.0826 -2.08263,-2.0826 l -28.75917,0 c -1.1477,0 -2.08477,0.9328 -2.08477,2.0826 l 0,28.583 c 0,1.1477 0.93707,2.0804 2.08477,2.0804 l 28.75917,0 c 1.152,0 2.08263,-0.9327 2.08263,-2.0804 l 0,-28.583"
               inkscape:connector-curvature="0" /></g></g></g><g
         id="g3084"><g
           clip-path="url(#clipPath3088)"
           id="g3086"><path
             id="path3092"
             style="fill:#4fc3ae;fill-opacity:1;fill-rule:nonzero;stroke:none"
             d="m 125.8173,394.1731 c 0,-1.1498 -0.9328,-2.0826 -2.0826,-2.0826 l -28.76133,0 c -1.1477,0 -2.08262,0.9328 -2.08262,2.0826 l 0,28.583 c 0,1.1477 0.93492,2.0804 2.08262,2.0804 l 28.76133,0 c 1.1498,0 2.0826,-0.9327 2.0826,-2.0804 l 0,-28.583"
             inkscape:connector-curvature="0" /><path
             id="path3094"
             style="fill:#70cfc2;fill-opacity:1;fill-rule:nonzero;stroke:none"
             d="m 163.3476,394.1731 c 0,-1.1498 -0.9306,-2.0826 -2.0826,-2.0826 l -28.7614,0 c -1.1455,0 -2.0826,0.9328 -2.0826,2.0826 l 0,28.583 c 0,1.1477 0.9371,2.0804 2.0826,2.0804 l 28.7614,0 c 1.152,0 2.0826,-0.9327 2.0826,-2.0804 l 0,-28.583"
             inkscape:connector-curvature="0" /><path
             id="path3096"
             style="fill:#8cd7b2;fill-opacity:1;fill-rule:nonzero;stroke:none"
             d="m 163.2573,356.7632 c 0,-1.1498 -0.9306,-2.0826 -2.0826,-2.0826 l -66.17769,0 c -1.14555,0 -2.08262,0.9328 -2.08262,2.0826 l 0,28.5808 c 0,1.1499 0.93707,2.0826 2.08262,2.0826 l 66.17769,0 c 1.152,0 2.0826,-0.9327 2.0826,-2.0826 l 0,-28.5808"
             inkscape:connector-curvature="0" /><path
             id="path3098"
             style="fill:#8cd7b2;fill-opacity:1;fill-rule:nonzero;stroke:none"
             d="m 88.49982,543.6279 c 0,-1.1498 -0.93063,-2.0826 -2.08263,-2.0826 l -28.75916,0 c -1.1477,0 -2.08478,0.9328 -2.08478,2.0826 l 0,28.583 c 0,1.1498 0.93708,2.0804 2.08478,2.0804 l 28.75916,0 c 1.152,0 2.08263,-0.9306 2.08263,-2.0804 l 0,-28.583"
             inkscape:connector-curvature="0" /><path
             id="path3100"
             style="fill:#8cd7b2;fill-opacity:1;fill-rule:nonzero;stroke:none"
             d="m 163.3927,618.2199 c 0,-1.1498 -0.9328,-2.0826 -2.0826,-2.0826 l -28.7613,0 c -1.1477,0 -2.0827,0.9328 -2.0827,2.0826 l 0,28.583 c 0,1.1498 0.935,2.0826 2.0827,2.0826 l 28.7613,0 c 1.1498,0 2.0826,-0.9328 2.0826,-2.0826 l 0,-28.583"
             inkscape:connector-curvature="0" /><path
             id="path3102"
             style="fill:#ade3d0;fill-opacity:1;fill-rule:nonzero;stroke:none"
             d="m 163.3927,581.0293 c 0,-1.1499 -0.9328,-2.0827 -2.0826,-2.0827 l -28.7613,0 c -1.1477,0 -2.0827,0.9328 -2.0827,2.0827 l 0,28.5829 c 0,1.1498 0.935,2.0805 2.0827,2.0805 l 28.7613,0 c 1.1498,0 2.0826,-0.9307 2.0826,-2.0805 l 0,-28.5829"
             inkscape:connector-curvature="0" /><path
             id="path3104"
             style="fill:#4fc3ae;fill-opacity:1;fill-rule:nonzero;stroke:none"
             d="m 163.3927,543.5828 c 0,-1.1477 -0.9328,-2.0826 -2.0826,-2.0826 l -28.7613,0 c -1.1477,0 -2.0827,0.9349 -2.0827,2.0826 l 0,28.5829 c 0,1.1499 0.935,2.0827 2.0827,2.0827 l 28.7613,0 c 1.1498,0 2.0826,-0.9328 2.0826,-2.0827 l 0,-28.5829"
             inkscape:connector-curvature="0" /><path
             id="path3106"
             style="fill:#656263;fill-opacity:1;fill-rule:nonzero;stroke:none"
             d="m 263.664,550.7592 c 1.3282,1.4357 3.0433,2.6285 4.9734,3.4517 1.9558,0.8726 3.9525,1.296 6.1017,1.296 2.16,0 4.2104,-0.4363 6.1125,-1.3025 1.7473,-0.7479 3.3958,-1.8849 5.0034,-3.4302 0.95,-1.066 1.7882,-2.1836 2.5791,-3.4646 0.1398,-0.2257 0.3869,-0.3632 0.6534,-0.3632 l 1.5217,0 c 0.015,0 0.0279,0 0.0387,0 0.4255,0 0.7673,0.3439 0.7673,0.7673 0,0.2084 -0.0817,0.3976 -0.2171,0.5373 l -0.1311,0.2536 c -0.778,1.4894 -1.8097,2.9144 -3.0713,4.2426 -1.7516,1.8118 -3.8106,3.2733 -5.9771,4.2384 -5.1152,2.0654 -9.5341,2.0675 -14.5311,-0.0129 -2.2094,-0.9565 -4.2705,-2.4201 -5.9276,-4.2018 -1.6979,-1.6464 -3.1014,-3.7741 -4.0664,-6.1662 -0.9844,-2.5512 -1.4636,-5.0057 -1.4636,-7.4988 0,-2.549 0.5072,-5.1475 1.4636,-7.4966 0.907,-2.3599 2.2331,-4.3888 4.0298,-6.1834 1.7259,-1.8569 3.7956,-3.3055 5.9578,-4.1824 2.4179,-1.0725 4.7928,-1.5948 7.258,-1.5948 2.4373,0 4.8272,0.5201 7.2924,1.5883 2.1256,0.8877 4.1868,2.3298 5.9492,4.161 1.1928,1.1928 2.2416,2.6242 3.0283,4.1351 l 0.2278,0.4363 c 0.1225,0.2386 0.116,0.5245 -0.0237,0.7544 -0.1397,0.2278 -0.389,0.3697 -0.6576,0.3697 l -1.584,0 c -0.2665,0 -0.6018,-0.2794 -0.7415,-0.5051 -0.7566,-1.2208 -1.526,-2.2417 -2.3298,-3.1014 -1.6055,-1.6011 -3.2561,-2.7768 -4.9992,-3.5742 -2.3233,-0.8618 -4.2813,-1.2637 -6.1619,-1.2637 -2.362,0 -4.5285,0.6705 -6.0953,1.2293 -2.0052,0.9221 -3.6795,2.1214 -4.9948,3.5936 -1.4658,1.5238 -2.62,3.2798 -3.426,5.2205 -0.8016,1.9129 -1.1906,4.0105 -1.1906,6.4134 0,2.347 0.4105,4.5457 1.1928,6.3661 0.8124,2.0053 1.9343,3.7311 3.4388,5.2872"
             inkscape:connector-curvature="0" /><path
             id="path3108"
             style="fill:#656263;fill-opacity:1;fill-rule:nonzero;stroke:none"
             d="m 333.274,557.5809 -1.4615,0 c -0.4234,0 -0.7694,-0.3439 -0.7694,-0.7673 l 0,-15.5434 -20.074,0 0,15.5434 c 0,0.4234 -0.3461,0.7673 -0.7695,0.7673 l -1.4615,0 c -0.4234,0 -0.7672,-0.3439 -0.7672,-0.7673 l 0,-35.5293 c 0,-0.4234 0.3438,-0.7673 0.7672,-0.7673 l 1.4615,0 c 0.4234,0 0.7695,0.3439 0.7695,0.7673 l 0,17.0457 20.074,0 0,-17.0457 c 0,-0.4234 0.346,-0.7673 0.7694,-0.7673 l 1.4615,0 c 0.4256,0 0.7695,0.3439 0.7695,0.7673 l 0,35.5293 c 0,0.4234 -0.3439,0.7673 -0.7695,0.7673"
             inkscape:connector-curvature="0" /><path
             id="path3110"
             style="fill:#656263;fill-opacity:1;fill-rule:nonzero;stroke:none"
             d="m 373.7638,523.5174 -17.5637,0 0,14.8126 16.1194,0 c 0.4256,0 0.7673,0.3439 0.7673,0.7673 l 0,1.4056 c 0,0.4234 -0.3417,0.7673 -0.7673,0.7673 l -16.1194,0 0,13.3727 17.3338,0 c 0.4234,0 0.7672,0.3438 0.7672,0.7651 l 0,1.4056 c 0,0.4234 -0.3438,0.7673 -0.7672,0.7673 l -19.569,0 c -0.4234,0 -0.7673,-0.3439 -0.7673,-0.7673 l 0,-35.5293 c 0,-0.4234 0.3439,-0.7673 0.7673,-0.7673 l 19.7989,0 c 0.4256,0 0.7695,0.3439 0.7695,0.7673 l 0,1.4636 c 0,0.4234 -0.3439,0.7695 -0.7695,0.7695"
             inkscape:connector-curvature="0" /><path
             id="path3112"
             style="fill:#656263;fill-opacity:1;fill-rule:nonzero;stroke:none"
             d="m 396.6899,550.7592 c 1.3282,1.4357 3.0455,2.6285 4.9712,3.4495 1.9602,0.8748 3.9568,1.2982 6.1039,1.2982 2.1643,0 4.2169,-0.4363 6.1103,-1.3025 1.7495,-0.7479 3.398,-1.8849 5.0057,-3.4323 0.937,-1.0446 1.7774,-2.1622 2.5855,-3.4689 0.1397,-0.2214 0.3826,-0.3568 0.6469,-0.3568 l 1.5282,0 c 0.004,0 0.0107,0 0.0193,0 0.4492,-0.002 0.7866,0.3374 0.7866,0.7673 0,0.2127 -0.0859,0.4019 -0.2214,0.5394 l -0.1332,0.2515 c -0.7802,1.4916 -1.8097,2.9165 -3.0713,4.2405 -1.7495,1.8096 -3.8063,3.2733 -5.9771,4.2405 -5.1195,2.0675 -9.5319,2.0675 -14.5268,-0.0129 -2.2137,-0.9565 -4.2748,-2.4201 -5.9319,-4.204 -1.6893,-1.6377 -3.0971,-3.7655 -4.0685,-6.164 -0.9801,-2.5426 -1.4572,-4.9971 -1.4572,-7.4988 0,-2.5555 0.5072,-5.1518 1.4572,-7.4966 0.9112,-2.3642 2.2352,-4.3931 4.032,-6.1834 1.7237,-1.8526 3.7912,-3.3012 5.9555,-4.1824 2.4222,-1.0725 4.795,-1.5948 7.2602,-1.5948 2.4351,0 4.8251,0.5201 7.2924,1.5883 2.1213,0.8855 4.1846,2.3277 5.9556,4.161 1.1886,1.1928 2.2331,2.6242 3.0176,4.133 l 0.2299,0.4363 c 0.1247,0.2386 0.1161,0.5244 -0.0215,0.7544 -0.1397,0.2299 -0.3868,0.3718 -0.6576,0.3718 l -1.5819,0 c -0.2665,0 -0.6061,-0.2794 -0.7458,-0.5072 -0.7565,-1.2251 -1.5216,-2.246 -2.3298,-3.1014 -1.5926,-1.5948 -3.2475,-2.7704 -4.9991,-3.5721 -2.3169,-0.8618 -4.2749,-1.2637 -6.1598,-1.2637 -2.3534,0 -4.5263,0.6705 -6.0931,1.2293 -2.0074,0.9221 -3.6817,2.1214 -4.9992,3.5936 -1.4636,1.5195 -2.6178,3.2755 -3.4216,5.2205 -0.8017,1.9236 -1.1928,4.0213 -1.1928,6.4134 0,2.347 0.4083,4.5435 1.1928,6.3661 0.806,1.9945 1.9257,3.7182 3.4388,5.2872"
             inkscape:connector-curvature="0" /><path
             id="path3114"
             style="fill:#656263;fill-opacity:1;fill-rule:nonzero;stroke:none"
             d="m 450.6383,541.238 12.8977,15.0748 c 0.1934,0.23 0.2364,0.5481 0.1139,0.8211 -0.1268,0.2729 -0.3976,0.447 -0.6985,0.447 l -1.9429,0 c -0.2257,0 -0.4385,-0.0989 -0.5825,-0.2708 l -16.431,-19.296 0,18.7995 c 0,0.4234 -0.3439,0.7673 -0.7673,0.7673 l -1.4636,0 c -0.4234,0 -0.7673,-0.3439 -0.7673,-0.7673 l 0,-35.5293 c 0,-0.4234 0.3439,-0.7673 0.7673,-0.7673 l 1.4636,0 c 0.4234,0 0.7673,0.3439 0.7673,0.7673 l 0,12.1691 4.6402,5.472 12.715,-18.0817 c 0.144,-0.2042 0.3783,-0.3267 0.6276,-0.3267 l 1.7086,0 c 0.288,0 0.5503,0.1591 0.6835,0.4127 0.1311,0.2557 0.1118,0.5609 -0.0559,0.7973 l -13.6757,19.511"
             inkscape:connector-curvature="0" /><path
             id="path3116"
             style="fill:#656263;fill-opacity:1;fill-rule:nonzero;stroke:none"
             d="m 493.9415,522.6491 c -2.3534,0 -4.5242,0.6705 -6.091,1.2293 -2.0074,0.9199 -3.6838,2.1214 -4.997,3.5936 -1.4658,1.5195 -2.6199,3.2755 -3.4259,5.2205 -0.8017,1.9193 -1.1886,4.0191 -1.1886,6.4134 0,2.3448 0.4084,4.5414 1.1886,6.3661 0.8167,2.0053 1.9386,3.7311 3.4409,5.2872 1.3218,1.4314 3.0391,2.6242 4.9691,3.4495 1.9623,0.8748 3.9568,1.2982 6.1039,1.2982 2.1643,0 4.2168,-0.4363 6.1168,-1.3025 1.7516,-0.7522 3.4022,-1.8892 5.0056,-3.4302 1.4507,-1.6248 2.6242,-3.4603 3.3958,-5.3194 0.8167,-1.9021 1.2487,-4.0965 1.2487,-6.3489 0,-2.2975 -0.4083,-4.3952 -1.2551,-6.4241 -0.7544,-1.8613 -1.8892,-3.6172 -3.3507,-5.1969 -1.5948,-1.5926 -3.2433,-2.7682 -4.9927,-3.5721 -2.3277,-0.8618 -4.2857,-1.2637 -6.1684,-1.2637 z m 13.2609,30.0981 c -1.7495,1.8075 -3.8085,3.2712 -5.9792,4.2384 -5.111,2.0654 -9.532,2.0697 -14.529,-0.0129 -2.2137,-0.9586 -4.2749,-2.4223 -5.9255,-4.2018 -1.6871,-1.6292 -3.0949,-3.7569 -4.075,-6.1662 -0.9779,-2.5555 -1.455,-5.0078 -1.455,-7.4988 0,-2.5469 0.5072,-5.1432 1.4572,-7.4966 0.9048,-2.3513 2.2266,-4.3802 4.032,-6.1834 1.7301,-1.8569 3.7956,-3.3034 5.9534,-4.1824 2.4222,-1.0725 4.7971,-1.5948 7.2602,-1.5948 2.4458,0 4.8315,0.5201 7.2946,1.5883 2.1213,0.8855 4.1846,2.3277 5.9663,4.1739 1.6915,1.7516 2.9917,3.7719 3.9675,6.1597 0.9779,2.261 1.4722,4.7972 1.4722,7.5353 0,2.6264 -0.4921,5.1582 -1.4722,7.5396 -1.0725,2.4802 -2.4093,4.5349 -3.9675,6.1017"
             inkscape:connector-curvature="0" /><path
             id="path3118"
             style="fill:#656263;fill-opacity:1;fill-rule:nonzero;stroke:none"
             d="m 552.5409,557.5809 -1.4035,0 c -0.4255,0 -0.7694,-0.3439 -0.7694,-0.7673 l 0,-24.6455 c 0,-1.5066 -0.3761,-2.7962 -0.7286,-3.8192 -0.4599,-1.1155 -1.1241,-2.102 -2.0482,-3.0283 -0.8404,-0.8941 -1.7689,-1.5518 -2.8671,-2.0225 -2.1171,-1.0165 -4.9003,-1.0316 -7.099,0.0172 -1.0317,0.4428 -1.9795,1.1048 -2.8822,2.0074 -0.8253,0.8748 -1.513,1.9236 -1.9816,3.0112 -0.4642,1.1842 -0.6813,2.4028 -0.6813,3.8342 l 0,24.6455 c 0,0.4234 -0.3439,0.7673 -0.7673,0.7673 l -1.4615,0 c -0.4234,0 -0.7673,-0.3439 -0.7673,-0.7673 l 0,-24.6455 c 0,-1.599 0.3052,-3.1981 0.9328,-4.8852 0.5567,-1.4852 1.4357,-2.837 2.5963,-3.9998 1.0746,-1.1434 2.3599,-2.0439 3.8042,-2.6694 1.5238,-0.6963 3.0433,-1.023 4.7799,-1.023 1.7388,0 3.2562,0.3267 4.7628,1.0166 1.455,0.6297 2.736,1.526 3.7956,2.65 1.1778,1.1778 2.0589,2.534 2.6156,4.0256 0.6319,1.6742 0.9371,3.2733 0.9371,4.8852 l 0,24.6455 c 0,0.4234 -0.3439,0.7673 -0.7673,0.7673"
             inkscape:connector-curvature="0" /><path
             id="path3120"
             style="fill:#656263;fill-opacity:1;fill-rule:nonzero;stroke:none"
             d="m 591.3521,557.5809 -21.9396,0 c -0.4255,0 -0.7694,-0.3439 -0.7694,-0.7673 l 0,-1.4056 c 0,-0.4213 0.3439,-0.7651 0.7694,-0.7651 l 9.5298,0 0,-33.3586 c 0,-0.4234 0.3439,-0.7673 0.7673,-0.7673 l 1.4056,0 c 0.4234,0 0.7673,0.3439 0.7673,0.7673 l 0,33.3586 9.4696,0 c 0.4234,0 0.7673,0.3438 0.7673,0.7651 l 0,1.4056 c 0,0.4234 -0.3439,0.7673 -0.7673,0.7673"
             inkscape:connector-curvature="0" /><path
             id="path3122"
             style="fill:#0daea3;fill-opacity:1;fill-rule:nonzero;stroke:none"
             d="m 283.0137,465.0082 -23.1431,0 0,19.9688 21.2604,0 c 0.4234,0 0.7673,0.346 0.7673,0.7672 l 0,1.655 c 0,0.4255 -0.3439,0.7694 -0.7673,0.7694 l -21.2604,0 0,18.0817 22.8444,0 c 0.4234,0 0.7673,0.3438 0.7673,0.7673 l 0,1.657 c 0,0.4234 -0.3439,0.7673 -0.7673,0.7673 l -25.3397,0 c -0.4234,0 -0.7673,-0.3439 -0.7673,-0.7673 l 0,-46.1638 c 0,-0.4234 0.3439,-0.7651 0.7673,-0.7651 l 25.6384,0 c 0.4234,0 0.7695,0.3417 0.7695,0.7651 l 0,1.7302 c 0,0.4234 -0.3461,0.7672 -0.7695,0.7672"
             inkscape:connector-curvature="0" /><path
             id="path3124"
             style="fill:#0daea3;fill-opacity:1;fill-rule:nonzero;stroke:none"
             d="m 321.0362,486.1934 15.0791,22.0471 c 0.1591,0.2342 0.1763,0.5394 0.0452,0.7909 -0.1333,0.2515 -0.3955,0.4105 -0.6792,0.4105 l -2.0826,0 c -0.2536,0 -0.49,-0.1268 -0.6362,-0.3374 l -13.6907,-20.2052 -13.6177,20.2116 c -0.144,0.2064 -0.3804,0.331 -0.6319,0.331 l -2.0074,0 c -0.2837,0 -0.5459,-0.1569 -0.677,-0.4083 -0.1333,-0.2515 -0.1182,-0.5567 0.043,-0.791 L 317.103,486.273 301.2738,462.9428 c -0.1591,-0.2343 -0.1762,-0.5395 -0.043,-0.7909 0.1333,-0.2493 0.3955,-0.4062 0.6792,-0.4062 l 2.0847,0 c 0.2558,0 0.4944,0.1246 0.6362,0.3374 l 14.4366,21.4109 14.3656,-21.4066 c 0.1418,-0.2149 0.3804,-0.3417 0.6405,-0.3417 l 2.0031,0 c 0.2837,0 0.5437,0.1547 0.6791,0.4062 0.1311,0.2493 0.1161,0.5545 -0.043,0.7888 l -15.6766,23.2527"
             inkscape:connector-curvature="0" /><path
             id="path3126"
             style="fill:#0daea3;fill-opacity:1;fill-rule:nonzero;stroke:none"
             d="m 371.5716,485.7528 -11.6081,0 0,20.4975 11.6081,0 c 1.4378,0 2.8091,-0.2687 4.1846,-0.8189 1.1885,-0.5008 2.2932,-1.2079 3.4345,-2.1879 0.9328,-0.9328 1.7065,-2.0203 2.3362,-3.2776 0.5588,-1.3326 0.8189,-2.6157 0.8189,-4.0363 0,-1.3605 -0.2923,-2.7618 -0.8017,-3.8451 -0.6534,-1.3733 -1.4185,-2.4544 -2.3534,-3.3227 -0.9908,-0.9951 -2.0697,-1.6829 -3.4345,-2.1815 -1.2788,-0.5416 -2.7253,-0.8275 -4.1846,-0.8275 z m 9.8543,19.8548 c -1.2444,1.1671 -2.6629,2.0698 -4.4812,2.8543 -1.6119,0.6404 -3.4689,0.98 -5.3731,0.98 l -14.1034,0 c -0.4234,0 -0.7652,-0.3439 -0.7652,-0.7673 l 0,-46.1638 c 0,-0.4234 0.3418,-0.7651 0.7652,-0.7651 l 1.728,0 c 0.4234,0 0.7673,0.3417 0.7673,0.7651 l 0,19.9795 11.6081,0 c 1.786,0 3.6473,0.3653 5.3989,1.0638 1.7882,0.7695 3.2067,1.6765 4.4812,2.8672 1.2229,1.225 2.2331,2.6693 3.0068,4.3135 0.7071,1.5647 1.0789,3.3614 1.0789,5.1948 0,2.016 -0.3438,3.7117 -1.0853,5.3537 -0.7673,1.6335 -1.7818,3.0821 -3.0262,4.3243"
             inkscape:connector-curvature="0" /><path
             id="path3128"
             style="fill:#0daea3;fill-opacity:1;fill-rule:nonzero;stroke:none"
             d="m 409.824,506.2503 14.0217,0 c 1.4809,0 3.0047,-0.3009 4.1094,-0.8189 1.2724,-0.5373 2.4695,-1.2895 3.5312,-2.2137 1.0016,-0.9307 1.756,-2.0246 2.2653,-3.3077 0.576,-1.1606 0.8662,-2.5018 0.8662,-3.9804 0,-1.4293 -0.2794,-2.6522 -0.9156,-3.9332 -0.4621,-1.2508 -1.2014,-2.3276 -2.2159,-3.211 -1.066,-0.9929 -2.2416,-1.7323 -3.5333,-2.2051 -1.2917,-0.5481 -2.6759,-0.8275 -4.1073,-0.8275 l -14.0217,0 0,20.4975 z m 16.6653,-23.5193 c 0.8726,0.1762 1.7903,0.4513 2.7532,0.8231 1.7882,0.7695 3.2067,1.6765 4.4855,2.8672 1.3196,1.3217 2.2739,2.693 3.0047,4.3157 0.7672,1.7022 1.152,3.4517 1.152,5.1926 0,1.8397 -0.3848,3.6365 -1.1585,5.3559 -0.7006,1.4765 -1.7108,2.9208 -3.0283,4.3221 -1.2444,1.1671 -2.6608,2.0698 -4.4833,2.8543 -1.6077,0.6404 -3.4625,0.98 -5.3689,0.98 l -16.5191,0 c -0.4256,0 -0.7695,-0.3439 -0.7695,-0.7673 l 0,-46.1638 c 0,-0.4234 0.3439,-0.7651 0.7695,-0.7651 l 1.728,0 c 0.4234,0 0.7694,0.3417 0.7694,0.7651 l 0,19.9795 12.8676,0 14.4688,-20.4093 c 0.144,-0.2107 0.3804,-0.3353 0.634,-0.3353 l 2.0891,0 c 0.288,0 0.5502,0.159 0.6813,0.4148 0.1332,0.2536 0.1096,0.5609 -0.0559,0.7952 l -14.0196,19.7753"
             inkscape:connector-curvature="0" /><path
             id="path3130"
             style="fill:#0daea3;fill-opacity:1;fill-rule:nonzero;stroke:none"
             d="m 488.1815,465.0082 -23.1453,0 0,19.9688 21.2604,0 c 0.4234,0 0.7673,0.346 0.7673,0.7672 l 0,1.655 c 0,0.4255 -0.3439,0.7694 -0.7673,0.7694 l -21.2604,0 0,18.0817 22.8444,0 c 0.4234,0 0.7673,0.3438 0.7673,0.7673 l 0,1.657 c 0,0.4234 -0.3439,0.7673 -0.7673,0.7673 l -25.3397,0 c -0.4234,0 -0.7673,-0.3439 -0.7673,-0.7673 l 0,-46.1638 c 0,-0.4234 0.3439,-0.7651 0.7673,-0.7651 l 25.6406,0 c 0.4234,0 0.7651,0.3417 0.7651,0.7651 l 0,1.7302 c 0,0.4234 -0.3417,0.7672 -0.7651,0.7672"
             inkscape:connector-curvature="0" /><path
             id="path3132"
             style="fill:#0daea3;fill-opacity:1;fill-rule:nonzero;stroke:none"
             d="m 536.3076,483.9819 c -2.6372,1.8096 -6.1232,3.125 -10.6453,4.0148 -4.4382,0.9392 -7.5439,1.9966 -9.7404,3.3184 -2.4007,1.5733 -3.5205,3.5441 -3.5205,6.2178 -0.0773,3.4087 1.6807,5.6525 3.1594,6.9249 2.332,1.915 5.4634,2.923 9.0548,2.923 3.3185,0 6.465,-1.0811 8.4337,-2.908 2.0418,-1.7602 3.0863,-4.1588 3.0219,-6.9313 l -0.0108,-0.3031 c -0.006,-0.2084 0.0731,-0.4105 0.2171,-0.5588 0.144,-0.1526 0.3439,-0.2364 0.5502,-0.2364 l 1.7323,0 c 0.417,0 0.7608,0.3353 0.7694,0.7523 l 0.004,0.2944 c 0.0774,3.6559 -1.3476,6.9099 -4.1308,9.4202 -2.6995,2.3749 -6.5596,3.7375 -10.5873,3.7375 -4.2297,0 -8.064,-1.2831 -11.1009,-3.7246 -2.8133,-2.3878 -4.3006,-5.6461 -4.3006,-9.4331 0.0817,-3.8321 1.7237,-6.7336 5.0206,-8.8721 2.4523,-1.5711 5.7729,-2.7317 10.7463,-3.7612 4.2749,-0.9672 7.3612,-2.0998 9.3643,-3.4023 2.2073,-1.829 3.2346,-4.0105 3.2346,-6.8733 0,-2.7489 -1.3712,-5.4483 -3.7869,-7.4257 -2.3922,-2.1127 -5.7321,-3.2754 -9.403,-3.2754 -3.628,0 -6.9443,1.167 -9.3579,3.3055 -2.3405,1.9086 -3.6817,4.6059 -3.6817,7.3956 l 0,0.2988 c 0,0.4212 -0.3438,0.7672 -0.7672,0.7672 l -1.728,0 c -0.4234,0 -0.7695,-0.346 -0.7695,-0.7672 l 0,-0.2988 c 0,-3.7289 1.6915,-7.1634 4.896,-9.9381 2.9703,-2.5598 7.127,-4.0277 11.4083,-4.0277 4.1824,0 8.2789,1.4249 11.5694,4.0341 3.1465,2.8026 4.8079,6.2371 4.8079,9.9317 0,3.9976 -1.4894,7.1549 -4.4597,9.4009"
             inkscape:connector-curvature="0" /><path
             id="path3134"
             style="fill:#0daea3;fill-opacity:1;fill-rule:nonzero;stroke:none"
             d="m 588.2765,483.9819 c -2.6306,1.8075 -6.1167,3.1228 -10.6388,4.0148 -4.4425,0.9392 -7.546,1.9966 -9.7447,3.3184 -2.4007,1.5733 -3.5162,3.5441 -3.5162,6.2178 -0.0795,3.4087 1.6786,5.6547 3.1551,6.9249 2.3298,1.915 5.4634,2.923 9.057,2.923 3.3184,0 6.4607,-1.0811 8.4272,-2.908 2.044,-1.7624 3.0906,-4.1609 3.0262,-6.9421 l -0.006,-0.3008 c -0.004,-0.2085 0.0752,-0.4084 0.2192,-0.5546 0.144,-0.1483 0.3396,-0.2321 0.5481,-0.2321 l 1.7259,0 c 0.4148,0 0.7543,0.331 0.7672,0.7437 l 0.0108,0.303 c 0.0752,3.6516 -1.3519,6.9056 -4.1352,9.4202 -2.7016,2.3749 -6.5574,3.7375 -10.5829,3.7375 -4.234,0 -8.0705,-1.2831 -11.1095,-3.7246 -2.8069,-2.3857 -4.2942,-5.644 -4.2942,-9.4331 0.0795,-3.83 1.7172,-6.7315 5.0185,-8.87 2.4566,-1.5732 5.7729,-2.7338 10.7463,-3.7633 4.2791,-0.9693 7.3655,-2.102 9.3686,-3.4001 2.203,-1.8333 3.2324,-4.0148 3.2324,-6.8755 0,-2.7489 -1.3755,-5.4483 -3.7912,-7.4257 -2.3879,-2.1127 -5.7278,-3.2754 -9.4009,-3.2754 -3.6279,0 -6.9421,1.167 -9.3578,3.3034 -2.3406,1.9128 -3.6817,4.6101 -3.6817,7.3977 l 0,0.2988 c 0,0.4212 -0.346,0.7672 -0.7694,0.7672 l -1.728,0 c -0.4234,0 -0.7673,-0.346 -0.7673,-0.7672 l 0,-0.2988 c 0,-3.7268 1.6914,-7.1634 4.896,-9.9381 2.9703,-2.5598 7.1312,-4.0277 11.4082,-4.0277 4.1825,0 8.279,1.4249 11.5695,4.0341 3.1465,2.8048 4.81,6.2393 4.81,9.9317 0,3.9976 -1.4916,7.1549 -4.4619,9.4009"
             inkscape:connector-curvature="0" /></g></g></g></g></svg>